<?xml version="1.0" encoding="UTF-8" standalone="no"?>
<svg
   xmlns:dc="http://purl.org/dc/elements/1.1/"
   xmlns:cc="http://creativecommons.org/ns#"
   xmlns:rdf="http://www.w3.org/1999/02/22-rdf-syntax-ns#"
   xmlns:svg="http://www.w3.org/2000/svg"
   xmlns="http://www.w3.org/2000/svg"
   xmlns:xlink="http://www.w3.org/1999/xlink"
   xmlns:sodipodi="http://sodipodi.sourceforge.net/DTD/sodipodi-0.dtd"
   xmlns:inkscape="http://www.inkscape.org/namespaces/inkscape"
   id="Layer_1"
   data-name="Layer 1"
   viewBox="0 0 413.38 345.73"
   width="706"
   height="426"
   class="illustration"
   version="1.1"
   sodipodi:docname="Receptionist_Monochromatic.svg"
   inkscape:version="1.0.2 (e86c870879, 2021-01-15, custom)">
  <metadata
     id="metadata103">
    <rdf:RDF>
      <cc:Work
         rdf:about="">
        <dc:format>image/svg+xml</dc:format>
        <dc:type
           rdf:resource="http://purl.org/dc/dcmitype/StillImage" />
      </cc:Work>
    </rdf:RDF>
  </metadata>
  <sodipodi:namedview
     pagecolor="#ffffff"
     bordercolor="#666666"
     borderopacity="1"
     objecttolerance="10"
     gridtolerance="10"
     guidetolerance="10"
     inkscape:pageopacity="0"
     inkscape:pageshadow="2"
     inkscape:window-width="1140"
     inkscape:window-height="819"
     id="namedview101"
     showgrid="false"
     inkscape:zoom="0.99133598"
     inkscape:cx="-56.256632"
     inkscape:cy="-0.67504494"
     inkscape:window-x="0"
     inkscape:window-y="0"
     inkscape:window-maximized="0"
     inkscape:current-layer="Layer_1" />
  <defs
     id="defs22">
    <linearGradient
       id="linear-gradient"
       x1="209.58"
       y1="166.04"
       x2="188.67"
       y2="168.63"
       gradientUnits="userSpaceOnUse">
      <stop
         offset="0.01"
         id="stop2" />
      <stop
         offset="0.83"
         stop-opacity="0.07"
         id="stop4" />
      <stop
         offset="1"
         stop-opacity="0"
         id="stop6" />
    </linearGradient>
    <linearGradient
       id="linear-gradient-2"
       x1="238.99"
       y1="180.37"
       x2="207.86"
       y2="184.96"
       xlink:href="#linear-gradient"
       gradientTransform="matrix(1.1658616,0,0,1.143954,-60.233776,-67.11919)" />
    <linearGradient
       id="linear-gradient-3"
       x1="212.34"
       y1="137.4"
       x2="210.77"
       y2="162.83"
       xlink:href="#linear-gradient"
       gradientTransform="matrix(1.1658616,0,0,1.143954,-60.233776,-67.11919)" />
    <linearGradient
       id="linear-gradient-4"
       x1="242.33"
       y1="176.91"
       x2="214.75"
       y2="179.85"
       xlink:href="#linear-gradient" />
    <linearGradient
       id="linear-gradient-5"
       x1="241.53"
       y1="162.98"
       x2="225.59"
       y2="166.89"
       xlink:href="#linear-gradient"
       gradientTransform="matrix(1.1658616,0,0,1.143954,-60.233776,-67.11919)" />
    <linearGradient
       id="linear-gradient-6"
       x1="175.03"
       y1="93.11"
       x2="210.24"
       y2="343.08"
       xlink:href="#linear-gradient"
       gradientTransform="matrix(1.1658616,0,0,1.143954,-61.259734,-63.870361)" />
    <linearGradient
       id="linear-gradient-7"
       x1="197.51"
       y1="144.49"
       x2="196.92"
       y2="268.89"
       xlink:href="#linear-gradient" />
    <linearGradient
       id="linear-gradient-8"
       x1="199.37"
       y1="149.27"
       x2="197.02"
       y2="209.51"
       xlink:href="#linear-gradient"
       gradientTransform="matrix(1.1658616,0,0,1.143954,-61.259734,-63.870361)" />
    <linearGradient
       id="linear-gradient-9"
       x1="306.97"
       y1="207.22"
       x2="369.76"
       y2="194.02"
       xlink:href="#linear-gradient"
       gradientTransform="matrix(1.1658616,0,0,1.143954,-60.233776,-67.11919)" />
    <linearGradient
       id="linear-gradient-10"
       x1="318.5"
       y1="216.07"
       x2="285.05"
       y2="226.63"
       xlink:href="#linear-gradient"
       gradientTransform="matrix(1.1658616,0,0,1.143954,-60.233776,-67.11919)" />
    <linearGradient
       id="linear-gradient-11"
       x1="318.3"
       y1="293.81"
       x2="321.82"
       y2="158.85"
       xlink:href="#linear-gradient"
       gradientTransform="matrix(1.1658616,0,0,1.143954,-60.233776,-67.11919)" />
    <linearGradient
       id="linear-gradient-12"
       x1="286.07"
       y1="260.37"
       x2="360.39"
       y2="175.09"
       xlink:href="#linear-gradient"
       gradientTransform="matrix(1.1658616,0,0,1.143954,-60.233776,-67.11919)" />
    <linearGradient
       id="linear-gradient-13"
       x1="323.46"
       y1="284.27"
       x2="326.23"
       y2="178.15"
       xlink:href="#linear-gradient"
       gradientTransform="matrix(1.1658616,0,0,1.143954,-60.233776,-67.11919)" />
    <linearGradient
       id="linear-gradient-14"
       x1="294.21"
       y1="310.77"
       x2="326.14"
       y2="267.14"
       xlink:href="#linear-gradient"
       gradientTransform="matrix(1.1658616,0,0,1.143954,-60.233776,-67.11919)" />
    <linearGradient
       inkscape:collect="always"
       xlink:href="#linear-gradient"
       id="linearGradient105"
       gradientUnits="userSpaceOnUse"
       x1="209.58"
       y1="166.04"
       x2="188.67"
       y2="168.63"
       gradientTransform="matrix(1.1658616,0,0,1.143954,-60.233776,-67.11919)" />
  </defs>
  <title
     id="title24">Receptionist</title>
  <path
     d="m 383.23994,254.99932 c -2.51179,15.72058 -7.03101,28.05229 -15.27836,38.47305 -5.85423,7.40844 -13.60714,13.86612 -23.82238,19.88136 -0.79111,0.46125 -1.57233,0.94135 -2.36344,1.33672 a 124.60021,118.61035 0 0 1 -28.48005,11.42801 188.81877,179.74176 0 0 1 -44.43086,6.45767 c -37.06362,1.46851 -74.30524,-4.13252 -111.17108,-0.32005 -23.48615,2.41927 -46.47786,8.62278 -70.092563,9.55472 C 50.36948,343.26048 19.990761,326.74917 1.933619,296.32467 1.666619,295.854 1.37984,295.38332 1.11284,294.90323 0.84584001,294.42313 0.56895001,293.96188 0.30195001,293.47237 A 188.59132,179.52524 0 0 1 -12.949184,262.0877 c -6.546456,-20.3238 -10.472352,-42.41733 -3.698451,-62.6658 6.9222343,-20.70975 23.921264,-36.60919 39.120511,-52.82868 A 447.384,425.87707 0 0 0 71.660295,83.146084 c 8.989016,-14.195588 17.246252,-29.04071 29.162385,-41.09943 12.66768,-12.830627 29.1327,-18.958829 46.47785,-23.891513 19.40203,-5.497496 37.45918,3.454762 55.23943,10.072466 40.54451,15.061633 87.28937,14.967498 123.85855,37.381089 30.71493,18.827041 49.87963,51.614344 57.52376,85.663034 7.64413,34.04871 4.84557,69.34 -0.68233,103.72759 z"
     fill="#ff8d2c"
     opacity="0.8"
     style="isolation:isolate;stroke-width:0.96483"
     id="path26" />
  <path
     d="m 352.19585,275.84575 c -5.47133,7.13687 -12.71713,13.35782 -22.26423,19.15256 -0.73937,0.44435 -1.4695,0.90684 -2.20887,1.28771 -3.59517,1.64139 -7.26428,3.14675 -10.87796,4.61584 l -15.71157,6.39324 a 176.4688,173.1528 0 0 1 -41.5248,6.22097 c -34.63941,1.41467 -69.44519,-3.98106 -103.89977,-0.30834 -21.95,2.33059 -43.4379,8.30669 -65.508053,9.20447 -34.79654,1.39654 -63.188293,-14.5095 -80.064381,-43.8187 -0.249537,-0.45342 -0.517558,-0.90685 -0.767095,-1.36934 -0.249537,-0.46249 -0.508317,-0.90683 -0.757853,-1.37841 z"
     fill="#ff8d2c"
     opacity="1"
     style="isolation:isolate;stroke-width:0.915485"
     id="path28" />
  <path
     d="m 207.71619,90.62063 c -0.88606,3.763605 -1.74879,8.007667 -0.76947,11.65689 1.16586,4.09536 -1.04928,2.49382 -3.68412,6.38326 a 16.765089,16.450059 0 0 1 -10.58602,6.58918 28.03897,27.512094 0 0 1 -12.73122,-0.68638 c -3.39265,-0.88083 -10.03806,2.28792 -11.47207,-0.86939 a 13.792142,13.532976 0 0 1 -0.88605,-4.83893 c -0.1982,-3.43186 2.65816,-11.634013 3.49758,-14.962924 a 13.465701,13.212669 0 0 0 0.58293,-3.100113 c 0,-2.379427 -1.85372,-4.324146 -2.87968,-6.48622 a 10.620999,10.421421 0 0 1 -0.74615,-6.577741 c 0.58293,-2.585332 2.1685,-4.88468 2.62319,-7.492895 a 23.31723,22.87908 0 0 0 0.16322,-3.855126 13.663897,13.407141 0 0 1 1.38738,-6.863723 c 8.35922,-14.059195 26.9314,-4.884684 30.4523,-1.933283 3.5209,2.951402 5.10647,7.939041 5.11813,12.583494 0.0116,4.644453 1.46898,14.127834 0.38474,18.669325 -0.16323,0.583422 -0.2565,1.178274 -0.45469,1.784576 z"
     fill="#3f3d56"
     id="path30"
     style="stroke-width:1.15485" />
  <path
     d="m 220.30749,175.12452 c 0,0 1.31743,5.71976 0.5363,8.98004 -0.78113,3.26026 -3.99891,6.96668 -5.82931,7.18402 -1.8304,0.21736 -2.96129,-0.66349 -2.83305,-1.89896 0.12825,-1.23547 4.82668,-5.57106 4.10384,-6.95524 -0.72283,-1.38418 -2.57656,2.82557 -3.21778,1.79601 -0.64122,-1.02956 -0.37307,-2.58534 1.25913,-4.57582 1.63221,-1.99048 0,-4.78173 0,-4.78173 0,0 4.82667,-2.13919 5.98087,0.25168 z"
     fill="#f6c8c9"
     id="path32"
     style="stroke-width:1.15485" />
  <path
     d="m 143.20907,122.77718 c 0,0 -2.73977,-4.73597 -3.92896,-5.44522 -1.18917,-0.70925 -3.27607,-2.66541 -3.89397,-2.21927 -1.09591,0.80076 3.64915,4.93043 -0.58293,4.57582 -0.6762,0 -4.06886,0 -5.71273,1.51001 a 3.1594847,3.1001153 0 0 0 0.15157,4.57582 c 1.10756,0.73213 4.93159,1.07531 6.99517,1.01812 a 11.903446,11.67977 0 0 1 5.8293,1.06387"
     fill="#f6c8c9"
     id="path34"
     style="stroke-width:1.15485" />
  <path
     d="m 172.42556,102.60926 a 54.655588,53.628563 0 0 0 -2.14518,9.30035 c -0.1982,3.26028 -1.7488,16.97628 -2.33173,17.63977 -0.58293,0.6635 -25.579,-7.68737 -25.579,-7.68737 0,0 -1.51562,2.09344 -0.30313,6.04008 0,0 18.65379,16.5187 29.86938,17.15932 11.21559,0.64061 9.81655,-25.53306 9.81655,-25.53306"
     fill="#f6c8c9"
     id="path36"
     style="stroke-width:1.15485" />
  <path
     d="m 171.9359,102.71223 -8.94216,26.25374 0.76947,7.73313 a 10.492753,10.295586 0 0 0 8.7323,9.15163 v 0 z"
     fill="#ff8d2c"
     id="path38"
     style="stroke-width:1.15485" />
  <path
     d="m 171.9359,102.71223 -8.94216,26.25374 0.76947,7.73313 a 10.492753,10.295586 0 0 0 8.7323,9.15163 v 0 z"
     fill="url(#linear-gradient)"
     id="path40"
     style="fill:url(#linearGradient105);stroke-width:1.15485" />
  <path
     d="m 206.01403,180.47822 c 0,0 1.95865,36.46926 4.57018,65.99471 0,0 -35.94351,5.07915 -50.62171,-0.57198 0,0 3.15948,-58.82211 3.81237,-67.2645 z"
     fill="#ff8d2c"
     id="path42"
     style="stroke-width:1.15485" />
  <path
     d="m 205.58266,103.58163 a 3.6491466,3.580576 0 0 0 -3.17114,-3.53482 c -1.32909,-0.171593 -3.14783,-0.446143 -5.64277,-0.892293 -6.59877,-1.14395 -9.04709,-0.59485 -13.81547,0.29744 -8.69732,1.624413 -9.6883,2.150633 -10.99407,3.260273 -1.30576,1.10963 -7.40322,20.59117 -4.32534,29.7428 0.64122,1.92184 2.48328,6.49766 2.82138,8.89996 2.01694,14.23079 -0.59459,34.73045 -0.59459,34.73045 0,0 -11.71691,9.42618 15.91402,12.19454 10.23625,1.02956 20.09945,-5.92568 20.09945,-5.92568 z"
     fill="#ff8d2c"
     id="path44"
     style="stroke-width:1.15485" />
  <path
     d="m 205.58266,103.6617 a 3.7424155,3.6720924 0 0 0 -3.22944,-3.61489 c -1.31742,-0.183033 -3.13616,-0.457583 -5.58447,-0.892293 -6.59877,-1.14395 -9.04709,-0.59485 -13.81547,0.29744 -8.69732,1.624413 -9.6883,2.150633 -10.99407,3.260273 -3.14783,2.66541 -0.26815,69.15201 -0.26815,69.15201 0,0 -13.54731,13.72746 14.08362,16.45006 10.23625,1.02956 20.09945,-5.92568 20.09945,-5.92568 z"
     fill="url(#linear-gradient-2)"
     id="path46"
     style="fill:url(#linear-gradient-2);stroke-width:1.15485" />
  <path
     d="m 181.09957,99.818017 a 108.82152,106.77667 0 0 0 11.53037,9.666413 1.364058,1.3384262 0 0 1 0.57127,1.45282 l -0.62957,0.80077 c 0,0 -8.72064,-6.86372 -13.20921,-11.09636 z"
     fill="url(#linear-gradient-3)"
     id="path48"
     style="fill:url(#linear-gradient-3);stroke-width:1.15485" />
  <polygon
     points="228.76,155.02 228.76,201.69 217.39,195.7 224.28,167.72 "
     fill="url(#linear-gradient-4)"
     id="polygon50"
     style="fill:url(#linear-gradient-4)"
     transform="matrix(1.1658616,0,0,1.143954,-61.259735,-63.870361)" />
  <path
     d="m 215.02614,152.09672 c -0.57127,0 -1.16586,0 -1.72548,0 l -49.89887,-0.32031 a 6.727021,6.6006146 0 0 1 -3.1245,-0.51478 2.331723,2.287908 0 0 1 -1.25914,-2.58533 3.2644123,3.2030712 0 0 1 2.33173,-1.57866 c 7.96283,-2.28791 16.46196,-1.60154 24.76289,-1.39562 6.91356,0.17159 14.16522,-0.0687 20.62409,-2.76837 a 24.483092,24.023034 0 0 1 9.3269,-1.65873 c 1.84206,0 2.85636,-0.37751 3.7191,1.04099 0.64122,1.041 0.39639,3.78649 0.20985,4.94189 a 5.7243801,5.6168141 0 0 1 -2.80973,4.2555 5.8293076,5.71977 0 0 1 -2.15684,0.58342 z"
     fill="#f6c8c9"
     id="path52"
     style="stroke-width:1.15485" />
  <path
     d="m 204.34685,101.04205 c 0,0 4.26705,4.10679 9.75825,21.02588 2.02861,6.29174 5.89927,20.35094 5.89927,20.35094 0,0 -7.5781,0.61774 -13.29082,0.61774 -2.5649,-14.57398 -9.25695,-18.12024 -10.39949,-24.84668 -1.14254,-6.72646 4.60515,-18.497753 8.03279,-17.14788 z"
     fill="#ff8d2c"
     id="path54"
     style="stroke-width:1.15485" />
  <path
     d="m 204.34685,101.04205 c 0,0 4.26705,4.10679 9.75825,21.02588 2.02861,6.29174 5.89927,20.35094 5.89927,20.35094 0,0 -8.3942,0.78933 -14.10693,0.78933 -2.5649,-14.57397 -8.44084,-18.30327 -9.58338,-25.01827 -1.14254,-6.71502 4.60515,-18.497753 8.03279,-17.14788 z"
     fill="url(#linear-gradient-5)"
     id="path56"
     style="fill:url(#linear-gradient-5);stroke-width:1.15485" />
  <path
     d="m 193.92405,82.063849 0.22151,17.250828 A 6.9951692,6.863724 0 0 1 187.71,102.27752 c -6.51716,-0.70925 -6.23736,-2.608223 -6.23736,-2.608223 0,0 0,-9.574888 -0.25649,-11.714081"
     fill="#f6c8c9"
     id="path58"
     style="stroke-width:1.15485" />
  <path
     d="m 194.04063,87.680661 -0.0816,-5.204984 -12.82447,6.554851 c 0.0932,0.812207 0.26814,7.858969 0.31478,9.895209 3.62583,1.06387 11.05237,-5.536742 12.5913,-11.245076 z"
     fill="#dcb5b0"
     id="path60"
     style="stroke-width:1.15485" />
  <path
     d="m 196.8387,64.92742 c 0,0 -0.54796,16.976275 -5.57282,22.787562 -5.31632,6.131593 -10.143,5.170673 -12.53301,4.575821 -5.73604,-1.338427 -6.54048,-16.690294 -6.72702,-20.922922 -0.478,-10.959079 14.92303,-20.819963 24.83285,-6.440461 z"
     fill="#f6c8c9"
     id="path62"
     style="stroke-width:1.15485" />
  <path
     d="m 194.65854,75.291643 a 1.8304026,1.7960078 0 0 1 2.8447,-1.452821 c 2.56489,1.143954 0.16322,5.559613 -0.83942,6.760767 a 3.2644123,3.2030712 0 0 1 -2.91465,0.846527"
     fill="#f6c8c9"
     id="path64"
     style="stroke-width:1.15485" />
  <rect
     x="50.464779"
     y="156.9814"
     width="236.01701"
     height="128.87787"
     fill="#ff8d2c"
     id="rect66"
     style="stroke-width:1.15485" />
  <rect
     x="50.464779"
     y="156.9814"
     width="236.01701"
     height="128.87787"
     fill="url(#linear-gradient-6)"
     id="rect68"
     style="fill:url(#linear-gradient-6);stroke-width:1.15485" />
  <polygon
     points="96.12,253.79 298.56,229.74 298.56,193.06 95.83,193.06 "
     fill="url(#linear-gradient-7)"
     id="polygon70"
     style="fill:url(#linear-gradient-7)"
     transform="matrix(1.1658616,0,0,1.143954,-61.259735,-63.870361)" />
  <rect
     x="44.309032"
     y="149.60289"
     width="250.04231"
     height="8.0534363"
     rx="4.1038322"
     fill="#ff8d2c"
     id="rect72"
     style="stroke-width:1.15485" />
  <rect
     x="44.309032"
     y="149.60289"
     width="250.04231"
     height="8.0534363"
     rx="4.1038322"
     fill="url(#linear-gradient-8)"
     id="rect74"
     style="fill:url(#linear-gradient-8);stroke-width:1.15485" />
  <path
     d="m 177.25222,61.632832 a 26.709887,26.207986 0 0 0 2.15685,6.280308 9.9564578,9.7693668 0 0 0 4.74506,4.575816 12.334815,12.103033 0 0 0 7.72965,0 6.517166,6.3947029 0 0 1 3.63749,-0.274549 c 1.10758,0.377505 2.12187,1.407063 3.2411,1.063878 1.11923,-0.343187 1.34074,-1.475701 1.43401,-2.482381 a 11.891788,11.668331 0 0 0 -1.16586,-6.772208 12.206571,11.977198 0 0 0 -2.68148,-3.145873 c -5.0132,-4.358465 -12.82448,-5.845605 -18.65378,-2.573897 -0.74616,0.423263 -3.12452,1.796008 -3.12452,2.779808 0.0699,2.01336 2.61153,0.26311 2.68148,0.549098 z"
     fill="#3f3d56"
     id="path76"
     style="stroke-width:1.15485" />
  <path
     d="m 337.54652,115.65035 c 2.96129,-5.59394 8.44084,-10.79893 14.84143,-10.29559 a 5.4212561,5.3193861 0 0 1 3.07787,1.07531 5.8293076,5.71977 0 0 1 1.67884,3.30604 c 2.73978,12.13734 -10.92412,23.06211 -9.51343,35.46257 0.58293,5.01052 3.5792,9.38042 5.8876,13.8876 2.30841,4.50718 3.92895,9.9524 1.71381,14.50534 -1.51561,3.11155 -4.54685,5.18211 -7.14673,7.48146 -2.59987,2.29934 -5.04817,5.38802 -4.66344,8.81988 0.16322,1.71593 1.02595,3.32891 1.02595,5.05628 0,3.35178 -3.11284,5.9028 -6.21403,7.3213 -3.1012,1.41851 -6.59878,2.35655 -8.9305,4.82749 -2.54158,2.69973 -3.1012,6.64637 -4.97823,9.82657 a 3.5908535,3.5233783 0 0 1 -1.28245,1.41849 2.8913366,2.8370059 0 0 1 -3.61417,-1.2469 8.3708858,8.2135898 0 0 1 -0.93269,-4.00384 l -1.70215,-30.33766 c -0.36142,-6.24599 -0.71119,-12.5835 0.20985,-18.73796 1.37571,-9.15164 5.46789,-17.66266 9.90982,-25.76185 4.01057,-7.37851 6.73868,-15.23747 10.63265,-22.60453 z"
     fill="#ff8d2c"
     id="path78"
     style="stroke-width:1.15485" />
  <path
     d="m 353.56546,159.05196 c 2.33172,4.50718 3.92896,9.96384 1.71382,14.50534 -1.52728,3.11155 -4.54686,5.18211 -7.14673,7.48146 a 19.912915,19.538734 0 0 0 -2.64651,2.80268 10.306216,10.112554 0 0 0 -1.93533,3.91233 6.5288246,6.4061424 0 0 0 -0.1399,2.09343 c 0.16322,1.71594 1.0143,3.34035 1.02596,5.06771 0,3.36323 -3.10119,5.90281 -6.21404,7.32131 -2.75144,1.24692 -5.82931,2.13919 -8.09109,4.03816 q -0.43136,0.37751 -0.83941,0.78933 c -2.54158,2.69973 -3.1012,6.63493 -4.97823,9.82656 a 3.7540741,3.6835319 0 0 1 -1.28245,1.4185 2.8913366,2.8370059 0 0 1 -3.61417,-1.2469 5.5261836,5.4223419 0 0 1 -0.78112,-2.28791 17.208116,16.884761 0 0 1 -0.13991,-1.69305 l -1.71382,-30.33766 c -0.36141,-6.24599 -0.71117,-12.58349 0.20986,-18.73797 1.37572,-9.15163 5.46789,-17.66265 9.92148,-25.76184 3.19446,-5.82273 5.56116,-11.9772 8.35923,-17.94864 0.71117,-1.55578 1.48064,-3.08867 2.27342,-4.57581 a 21.615072,21.208907 0 0 1 8.3126,-8.85421 11.658616,11.43954 0 0 1 6.52883,-1.41851 5.5495008,5.4452211 0 0 1 3.07787,1.08676 5.8293076,5.71977 0 0 1 1.67884,3.20308 c 2.73978,12.14878 -10.92412,23.06211 -9.51343,35.46257 0.61791,5.0334 3.68412,9.34611 5.93423,13.85328 z"
     fill="url(#linear-gradient-9)"
     id="path80"
     style="fill:url(#linear-gradient-9);stroke-width:1.15485" />
  <path
     d="m 285.75896,200.88635 c -6.3656,-4.16398 -13.16258,-9.35753 -14.1419,-16.79323 a 6.668728,6.5434169 0 0 1 1.16586,-5.12492 c 1.16586,-1.3613 3.61417,-1.76169 4.83832,-0.41182 0.92104,1.01812 1.64387,3.0086 2.903,2.43662 0.86273,-0.38894 0.74615,-1.61298 0.45468,-2.49382 -2.16849,-6.5663 -6.33062,-12.97244 -5.26969,-19.7904 0.32645,-2.07056 2.0286,-4.51862 4.03388,-3.7865 a 3.3343639,3.2717085 0 0 1 1.57392,1.45283 c 2.19181,3.37466 2.39001,8.39662 6.06248,10.12399 a 7.5314655,7.3899429 0 0 1 2.33172,-4.70165 c 2.07523,2.99716 2.07523,6.86373 2.93797,10.3871 1.72547,7.001 6.9019,12.5835 11.55369,18.16599 4.65178,5.5825 9.1287,12.02295 8.98879,19.21843 -1.66718,1.32698 -4.5935,-0.82365 -6.16741,0.60629 -1.25913,1.14396 -0.23317,3.18019 -0.4197,4.85037 -0.22152,1.94473 -2.86803,3.18019 -4.66346,2.43663 -1.79542,-0.74358 -2.21513,-3.84369 -3.19445,-5.37659 -3.12452,-4.81605 -8.26596,-8.08775 -12.9877,-11.19932 z"
     fill="#ff8d2c"
     id="path82"
     style="stroke-width:1.15485" />
  <path
     d="m 285.75896,200.88635 c -6.3656,-4.16398 -13.16258,-9.35753 -14.1419,-16.79323 a 6.668728,6.5434169 0 0 1 1.16586,-5.12492 c 1.16586,-1.3613 3.61417,-1.76169 4.83832,-0.41182 0.92104,1.01812 1.64387,3.0086 2.903,2.43662 0.86273,-0.38894 0.74615,-1.61298 0.45468,-2.49382 -2.16849,-6.5663 -6.33062,-12.97244 -5.26969,-19.7904 0.32645,-2.07056 2.0286,-4.51862 4.03388,-3.7865 a 3.3343639,3.2717085 0 0 1 1.57392,1.45283 c 2.19181,3.37466 2.39001,8.39662 6.06248,10.12399 a 7.5314655,7.3899429 0 0 1 2.33172,-4.70165 c 2.07523,2.99716 2.07523,6.86373 2.93797,10.3871 1.72547,7.001 6.9019,12.5835 11.55369,18.16599 4.65178,5.5825 9.1287,12.02295 8.98879,19.21843 -1.66718,1.32698 -4.5935,-0.82365 -6.16741,0.60629 -1.25913,1.14396 -0.23317,3.18019 -0.4197,4.85037 -0.22152,1.94473 -2.86803,3.18019 -4.66346,2.43663 -1.79542,-0.74358 -2.21513,-3.84369 -3.19445,-5.37659 -3.12452,-4.81605 -8.26596,-8.08775 -12.9877,-11.19932 z"
     fill="url(#linear-gradient-10)"
     id="path84"
     style="fill:url(#linear-gradient-10);stroke-width:1.15485" />
  <path
     d="m 288.18395,190.076 c -4.66344,-9.81513 2.80972,-20.59118 8.77893,-29.74281 a 13.13926,12.892361 0 0 0 2.54159,-6.06296 14.514976,14.242227 0 0 0 -1.44567,-5.79985 c -3.7191,-9.15163 -6.61044,-19.37857 -3.73076,-28.83907 1.60889,-5.28507 4.89662,-9.90664 7.36825,-14.8714 a 53.501386,52.496049 0 0 0 5.42125,-24.778053 c -0.15156,-4.404228 -0.86274,-8.865646 0,-13.178352 0.86274,-4.312707 3.92896,-8.613974 8.35923,-9.323225 4.88496,-0.77789 9.32689,3.020038 11.79852,7.264108 7.25166,12.743649 2.13353,28.701808 4.57017,43.104192 2.0286,11.94288 9.32689,23.61121 6.35395,35.34818 -2.04026,8.17927 -8.91885,15.04299 -9.19864,23.41674 5.17641,-0.36607 10.01475,4.03816 10.62099,9.15163 0.60625,5.11347 -2.61153,10.16975 -7.22834,12.48054 -3.9173,1.95616 -9.52509,3.11155 -10.00309,7.40138 -0.24484,2.19639 1.16586,4.23262 1.52728,6.41758 1.28244,7.61873 -9.32689,21.04876 -15.28445,13.00676 -2.99626,-4.01528 -3.49759,-8.35087 -7.5198,-12.20599 -4.41862,-4.30127 -10.21296,-7.02388 -12.92941,-12.7894 z"
     fill="#ff8d2c"
     id="path86"
     style="stroke-width:1.15485" />
  <path
     d="m 332.39342,188.18847 c -3.9173,1.95616 -9.51343,3.11155 -10.00309,7.38994 -0.24484,2.20783 1.16586,4.24407 1.51562,6.42903 0.97932,5.71976 -4.81502,14.87139 -10.29456,15.45482 a 5.2463769,5.147793 0 0 1 -4.97823,-2.43663 c -2.99626,-4.02671 -3.49759,-8.37374 -7.5198,-12.21743 -4.41862,-4.23263 -10.21296,-6.96668 -12.92941,-12.7322 -4.66344,-9.81513 2.79807,-20.64838 8.76728,-29.74281 a 12.999356,12.755088 0 0 0 2.55324,-6.06296 14.514976,14.242227 0 0 0 -1.44567,-5.79985 c -3.7191,-9.15163 -6.61044,-19.37857 -3.73076,-28.83907 1.62055,-5.28507 4.89662,-9.8952 7.36825,-14.8714 a 53.62963,52.621884 0 0 0 5.42125,-24.778053 c -0.15156,-4.404228 -0.86274,-8.854207 0,-13.166913 0.86274,-4.312706 3.92896,-8.625413 8.35923,-9.323225 4.88496,-0.789329 9.32689,3.008599 11.79852,7.252669 4.66344,8.156392 4.22042,17.628327 3.94061,27.168908 v 0 a 85.352723,83.748873 0 0 0 0.62956,15.923844 c 2.0286,11.94288 9.32689,23.59977 6.3656,35.35962 -2.05191,8.17927 -8.9305,15.04299 -9.21029,23.4053 5.17641,-0.35463 10.0264,4.0496 10.63265,9.15163 0.60624,5.10203 -2.61153,10.12399 -7.24,12.43478 z"
     fill="url(#linear-gradient-11)"
     id="path88"
     style="fill:url(#linear-gradient-11);stroke-width:1.15485" />
  <path
     d="m 345.88244,181.11884 a 10.760902,10.558696 0 0 1 -0.3964,2.75692 12.276522,12.045835 0 0 1 -1.93533,3.91232 13.745508,13.487217 0 0 1 -6.44721,4.81605 c -4.12715,1.45283 -7.85791,4.20975 -8.89553,8.38519 -0.25648,1.05243 0.7928,3.16875 1.92367,5.31938 q -0.43136,0.3775 -0.83941,0.78933 c -2.54158,2.69973 -3.1012,6.63493 -4.97823,9.82657 a 3.7540741,3.6835319 0 0 1 -1.28245,1.41849 2.8913366,2.8370059 0 0 1 -3.61417,-1.2469 5.5261836,5.4223419 0 0 1 -0.78112,-2.28791 c 3.42762,-3.27171 5.94589,-8.797 5.26969,-12.74365 -0.36142,-2.18496 -1.76046,-4.22119 -1.51562,-6.42902 0.48966,-4.27839 6.08579,-5.43378 10.00309,-7.38994 4.66344,-2.28791 7.84624,-7.41283 7.24,-12.48054 -0.60625,-5.06772 -5.45624,-9.4605 -10.63265,-9.15163 0.27979,-8.40806 7.17004,-15.20316 9.24528,-23.37098 1.94698,-7.65305 -0.48966,-15.27179 -2.97295,-22.95916 0.71117,-1.55578 1.48064,-3.08867 2.27342,-4.57581 a 21.615072,21.208907 0 0 1 8.3126,-8.85421 c -1.72548,4.32415 -2.87968,8.63685 -2.42499,12.86948 3.41597,32.28238 -5.99253,37.21282 -7.35659,45.52937 5.18808,0.22879 9.85153,10.73029 9.8049,15.86665 z"
     fill="url(#linear-gradient-12)"
     id="path90"
     style="fill:url(#linear-gradient-12);stroke-width:1.15485" />
  <path
     d="m 332.39342,188.18847 c -3.9173,1.95616 -9.51343,3.11155 -10.00309,7.38994 -0.24484,2.20783 1.16586,4.24407 1.51562,6.42903 0.97932,5.71976 -4.81502,14.87139 -10.29456,15.45482 a 22.641031,22.215587 0 0 0 -3.69578,-7.60731 c -3.82403,-4.7474 -9.23362,-8.17926 -11.19227,-14.24222 -3.32271,-10.29559 5.43291,-20.11071 12.52135,-28.40438 a 13.057649,12.812285 0 0 0 3.31104,-5.71977 14.514976,14.242227 0 0 0 -0.68785,-5.93711 c -2.51826,-9.56347 -4.08051,-20.03065 0,-29.06788 2.26177,-5.04484 6.12077,-9.22027 9.21031,-13.81896 a 53.722899,52.7134 0 0 0 8.16103,-20.739894 85.352723,83.748873 0 0 0 0.62956,15.923844 c 2.02861,11.94288 9.32689,23.59977 6.36561,35.35962 -2.07524,8.16783 -8.95383,15.03155 -9.23362,23.39386 5.17641,-0.35463 10.0264,4.0496 10.63265,9.15163 0.60624,5.10203 -2.61153,10.12399 -7.24,12.43478 z"
     fill="url(#linear-gradient-13)"
     id="path92"
     style="fill:url(#linear-gradient-13);stroke-width:1.15485" />
  <path
     d="m 316.65429,288.2158 h -8.00947 a 11.926764,11.702649 0 0 1 -11.9151,-11.15354 l -2.65817,-55.04707 a 6.7619969,6.6349332 0 0 1 6.762,-6.96668 h 24.65797 a 6.7736555,6.6463728 0 0 1 6.76199,7.08107 l -3.69578,55.15002 a 11.938422,11.714089 0 0 1 -11.90344,10.9362 z"
     fill="#ff8d2c"
     id="path94"
     style="stroke-width:1.15485" />
  <path
     d="m 316.70093,288.2158 h -8.10275 a 11.880129,11.656892 0 0 1 -11.86846,-11.10779 l -2.63486,-54.61236 a 7.2516587,7.1153939 0 0 1 7.24001,-7.44714 h 23.65533 a 7.2516587,7.1153939 0 0 1 7.22834,7.58441 l -3.66081,54.69245 a 11.880129,11.656892 0 0 1 -11.8568,10.89043 z"
     fill="url(#linear-gradient-14)"
     id="path96"
     style="fill:url(#linear-gradient-14);stroke-width:1.15485" />
  <rect
     x="85.009254"
     y="138.41502"
     width="30.102545"
     height="11.41666"
     rx="4.9199357"
     fill="#ff8d2c"
     id="rect98"
     style="stroke-width:1.15485" />
</svg>
