<?xml version="1.0" encoding="UTF-8" standalone="no"?>
<svg
   xmlns:dc="http://purl.org/dc/elements/1.1/"
   xmlns:cc="http://creativecommons.org/ns#"
   xmlns:rdf="http://www.w3.org/1999/02/22-rdf-syntax-ns#"
   xmlns:svg="http://www.w3.org/2000/svg"
   xmlns="http://www.w3.org/2000/svg"
   xmlns:xlink="http://www.w3.org/1999/xlink"
   xmlns:sodipodi="http://sodipodi.sourceforge.net/DTD/sodipodi-0.dtd"
   xmlns:inkscape="http://www.inkscape.org/namespaces/inkscape"
   id="Layer_1"
   data-name="Layer 1"
   viewBox="0 0 518.92 430.78"
   width="706"
   height="426"
   class="illustration"
   version="1.1"
   sodipodi:docname="service002.svg"
   inkscape:version="1.0.2 (e86c870879, 2021-01-15, custom)">
  <metadata
     id="metadata221">
    <rdf:RDF>
      <cc:Work
         rdf:about="">
        <dc:format>image/svg+xml</dc:format>
        <dc:type
           rdf:resource="http://purl.org/dc/dcmitype/StillImage" />
      </cc:Work>
    </rdf:RDF>
  </metadata>
  <sodipodi:namedview
     pagecolor="#ffffff"
     bordercolor="#666666"
     borderopacity="1"
     objecttolerance="10"
     gridtolerance="10"
     guidetolerance="10"
     inkscape:pageopacity="0"
     inkscape:pageshadow="2"
     inkscape:window-width="1920"
     inkscape:window-height="1002"
     id="namedview219"
     showgrid="false"
     inkscape:zoom="1.372549"
     inkscape:cx="-28.682826"
     inkscape:cy="159.82536"
     inkscape:window-x="-8"
     inkscape:window-y="-8"
     inkscape:window-maximized="1"
     inkscape:current-layer="Layer_1" />
  <defs
     id="defs50">
    <linearGradient
       id="linear-gradient"
       x1="267.13"
       y1="291.75"
       x2="263.53"
       y2="450.19"
       gradientUnits="userSpaceOnUse">
      <stop
         offset="0"
         stop-color="#010101"
         stop-opacity="0"
         id="stop2" />
      <stop
         offset="0.95"
         stop-color="#010101"
         id="stop4" />
    </linearGradient>
    <linearGradient
       id="linear-gradient-2"
       x1="266.32"
       y1="292.84"
       x2="265.42"
       y2="406.27"
       xlink:href="#linear-gradient"
       gradientTransform="matrix(1.2347392,0,0,1.2416416,-585.75445,-69.00182)" />
    <linearGradient
       id="linear-gradient-3"
       x1="323.11"
       y1="210.77"
       x2="339.32"
       y2="303.8"
       xlink:href="#linear-gradient"
       gradientTransform="matrix(-1.2347392,0,0,1.2416416,600.42315,-99.136458)" />
    <linearGradient
       id="linear-gradient-4"
       x1="195.36"
       y1="196.65"
       x2="209.77"
       y2="293.42"
       xlink:href="#linear-gradient"
       gradientTransform="matrix(-1.2347392,0,0,1.2416416,600.42315,-99.136458)" />
    <linearGradient
       id="linear-gradient-5"
       x1="159.41"
       y1="240.62"
       x2="262.04"
       y2="309.49"
       xlink:href="#linear-gradient"
       gradientTransform="matrix(-1.2347392,0,0,1.2416416,600.42315,-99.136458)" />
    <linearGradient
       id="linear-gradient-6"
       x1="363.27"
       y1="252.54"
       x2="342.26"
       y2="322.16"
       xlink:href="#linear-gradient"
       gradientTransform="matrix(-1.2347392,0,0,1.2416416,600.42315,-99.136458)" />
    <linearGradient
       id="linear-gradient-7"
       x1="342.37"
       y1="168.55"
       x2="360.88"
       y2="168.55"
       gradientUnits="userSpaceOnUse">
      <stop
         offset="0"
         stop-color="#e4c5d5"
         id="stop12" />
      <stop
         offset="0.42"
         stop-color="#e9d3cf"
         id="stop14" />
      <stop
         offset="1"
         stop-color="#efe8ca"
         id="stop16" />
    </linearGradient>
    <linearGradient
       id="linear-gradient-8"
       x1="265.12"
       y1="236.67"
       x2="263.09"
       y2="256.7"
       xlink:href="#linear-gradient-7"
       gradientTransform="matrix(-1.2347392,0,0,1.2416416,600.42315,-99.136458)" />
    <linearGradient
       id="linear-gradient-9"
       x1="263.25"
       y1="204.46"
       x2="269.1"
       y2="239.35"
       xlink:href="#linear-gradient-7"
       gradientTransform="matrix(-1.2347392,0,0,1.2416416,600.42315,-99.136458)" />
    <linearGradient
       id="linear-gradient-10"
       x1="285.27"
       y1="217.66"
       x2="283.92"
       y2="229.81"
       xlink:href="#linear-gradient-7"
       gradientTransform="matrix(-1.2347392,0,0,1.2416416,600.42315,-99.136458)" />
    <linearGradient
       id="linear-gradient-11"
       x1="245.05"
       y1="215.08"
       x2="248.43"
       y2="230.91"
       xlink:href="#linear-gradient-7"
       gradientTransform="matrix(-1.2347392,0,0,1.2416416,600.42315,-99.136458)" />
    <linearGradient
       id="linear-gradient-12"
       x1="219.43"
       y1="261.51"
       x2="202.02"
       y2="356.93"
       xlink:href="#linear-gradient"
       gradientTransform="matrix(-1.2347392,0,0,1.2416416,600.42315,-99.136458)" />
    <linearGradient
       id="linear-gradient-13"
       x1="304.51"
       y1="267.69"
       x2="336.31"
       y2="357.71"
       xlink:href="#linear-gradient"
       gradientTransform="matrix(-1.2347392,0,0,1.2416416,600.42315,-99.136458)" />
    <linearGradient
       id="linear-gradient-14"
       x1="259.29"
       y1="362.13"
       x2="261.1"
       y2="260.7"
       xlink:href="#linear-gradient"
       gradientTransform="matrix(-1.2347392,0,0,1.2416416,600.42315,-99.136458)" />
    <linearGradient
       id="linear-gradient-15"
       x1="356.19"
       y1="287.72"
       x2="363.85"
       y2="343.99"
       xlink:href="#linear-gradient"
       gradientTransform="matrix(-1.2347392,0,0,1.2416416,600.42315,-99.136458)" />
    <linearGradient
       id="linear-gradient-16"
       x1="365.52"
       y1="300.79"
       x2="356.29"
       y2="365.83"
       xlink:href="#linear-gradient"
       gradientTransform="matrix(-1.2347392,0,0,1.2416416,600.42315,-99.136458)" />
    <linearGradient
       id="linear-gradient-17"
       x1="351.12"
       y1="334.22"
       x2="375.89"
       y2="334.22"
       xlink:href="#linear-gradient-7"
       gradientTransform="matrix(-1.2347392,0,0,1.2416416,600.42315,-99.136458)" />
    <linearGradient
       id="linear-gradient-18"
       x1="364.92"
       y1="322.5"
       x2="377.45"
       y2="322.5"
       xlink:href="#linear-gradient-7"
       gradientTransform="matrix(-1.2347392,0,0,1.2416416,600.42315,-99.136458)" />
    <linearGradient
       id="linear-gradient-19"
       x1="93.29"
       y1="223.81"
       x2="133.48"
       y2="223.81"
       xlink:href="#linear-gradient-7"
       gradientTransform="matrix(-1.2347392,0,0,1.2416416,600.42315,-99.136458)" />
    <linearGradient
       id="linear-gradient-20"
       x1="109.76"
       y1="213.08"
       x2="92.43"
       y2="265.07"
       xlink:href="#linear-gradient"
       gradientTransform="matrix(-1.2347392,0,0,1.2416416,600.42315,-99.136458)" />
    <linearGradient
       id="linear-gradient-21"
       x1="405.5"
       y1="235.34"
       x2="440.14"
       y2="235.34"
       xlink:href="#linear-gradient-7"
       gradientTransform="matrix(-1.2347392,0,0,1.2416416,600.42315,-99.136458)" />
    <linearGradient
       id="linear-gradient-22"
       x1="423.19"
       y1="225.94"
       x2="437.37"
       y2="222.79"
       xlink:href="#linear-gradient"
       gradientTransform="matrix(-1.2347392,0,0,1.2416416,600.42315,-99.136458)" />
    <linearGradient
       id="linear-gradient-23"
       x1="96.4"
       y1="178.29"
       x2="65.49"
       y2="222.41"
       xlink:href="#linear-gradient"
       gradientTransform="matrix(1.2347392,0,0,1.2416416,-585.75445,-69.00182)" />
    <linearGradient
       id="linear-gradient-24"
       x1="75.22"
       y1="174.65"
       x2="74.62"
       y2="199.18"
       xlink:href="#linear-gradient"
       gradientTransform="matrix(1.2347392,0,0,1.2416416,-585.75445,-69.00182)" />
    <linearGradient
       id="linear-gradient-25"
       x1="86.84"
       y1="174.93"
       x2="86.24"
       y2="199.46"
       xlink:href="#linear-gradient"
       gradientTransform="matrix(1.2347392,0,0,1.2416416,-585.75445,-69.00182)" />
    <linearGradient
       id="linear-gradient-26"
       x1="86.75"
       y1="184.45"
       x2="53.74"
       y2="205.6"
       xlink:href="#linear-gradient"
       gradientTransform="matrix(1.2347392,0,0,1.2416416,-585.75445,-69.00182)" />
    <linearGradient
       id="linear-gradient-27"
       x1="78.99"
       y1="182.97"
       x2="71.45"
       y2="198.05"
       xlink:href="#linear-gradient"
       gradientTransform="matrix(1.2347392,0,0,1.2416416,-585.75445,-69.00182)" />
    <linearGradient
       id="linear-gradient-28"
       x1="76.74"
       y1="189.32"
       x2="57.99"
       y2="192.17"
       xlink:href="#linear-gradient"
       gradientTransform="matrix(1.2347392,0,0,1.2416416,-585.75445,-69.00182)" />
    <linearGradient
       id="linear-gradient-29"
       x1="156.94"
       y1="178.26"
       x2="180.88"
       y2="178.26"
       xlink:href="#linear-gradient-7"
       gradientTransform="matrix(-1.2347392,0,0,1.2416416,600.42315,-99.136458)" />
    <linearGradient
       id="linear-gradient-30"
       x1="157.49"
       y1="166.58"
       x2="165.48"
       y2="204.95"
       gradientTransform="matrix(1.2143671,-0.22580359,0.22463122,1.2207051,-608.44383,12.349037)"
       xlink:href="#linear-gradient" />
    <linearGradient
       id="linear-gradient-31"
       x1="175"
       y1="180.33"
       x2="77.18"
       y2="117.61"
       gradientTransform="matrix(1.2143671,-0.22580359,0.22463122,1.2207051,-608.45898,12.338347)"
       xlink:href="#linear-gradient" />
    <linearGradient
       id="linear-gradient-32"
       x1="359.09"
       y1="136.39"
       x2="354.14"
       y2="175.1"
       xlink:href="#linear-gradient"
       gradientTransform="matrix(-1.2347392,0,0,1.2416416,600.42315,-99.136458)" />
    <linearGradient
       id="linear-gradient-33"
       x1="74.13"
       y1="185.12"
       x2="69.97"
       y2="194.4"
       xlink:href="#linear-gradient"
       gradientTransform="matrix(1.2347392,0,0,1.2416416,-585.75445,-69.00182)" />
    <linearGradient
       id="linear-gradient-34"
       x1="77.23"
       y1="185.12"
       x2="73.06"
       y2="194.4"
       xlink:href="#linear-gradient"
       gradientTransform="matrix(1.2347392,0,0,1.2416416,-585.75445,-69.00182)" />
    <linearGradient
       id="linear-gradient-35"
       x1="105.08"
       y1="195.88"
       x2="105.36"
       y2="201.65"
       xlink:href="#linear-gradient"
       gradientTransform="matrix(-1.2347392,0,0,1.2416416,600.42315,-99.136458)" />
    <linearGradient
       id="linear-gradient-36"
       x1="163.03"
       y1="312.09"
       x2="149.99"
       y2="364.23"
       xlink:href="#linear-gradient"
       gradientTransform="matrix(-1.2347392,0,0,1.2416416,600.42315,-99.136458)" />
    <linearGradient
       id="linear-gradient-37"
       x1="168.26"
       y1="310.36"
       x2="193.77"
       y2="310.36"
       xlink:href="#linear-gradient" />
    <linearGradient
       id="linear-gradient-38"
       x1="136.79"
       y1="273.98"
       x2="127.24"
       y2="415.98"
       xlink:href="#linear-gradient"
       gradientTransform="matrix(-1.2347392,0,0,1.2416416,600.42315,-99.136458)" />
    <linearGradient
       inkscape:collect="always"
       xlink:href="#linear-gradient"
       id="linearGradient223"
       gradientUnits="userSpaceOnUse"
       x1="267.13"
       y1="291.75"
       x2="263.53"
       y2="450.19" />
    <linearGradient
       inkscape:collect="always"
       xlink:href="#linear-gradient-7"
       id="linearGradient225"
       gradientUnits="userSpaceOnUse"
       x1="342.37"
       y1="168.55"
       x2="360.88"
       y2="168.55"
       gradientTransform="matrix(-1.2347392,0,0,1.2416416,600.42315,-99.136458)" />
  </defs>
  <title
     id="title52">Manager</title>
  <polygon
     points="98.04,302.78 441.34,302.78 484.55,323.19 483.74,345.75 48.23,345.75 48.23,324.99 "
     fill="#ff8d2c"
     id="polygon54"
     transform="matrix(-1.2347393,0,0,1.2416416,585.75445,-69.001823)" />
  <polygon
     points="98.04,302.78 441.34,302.78 484.55,323.19 483.74,345.75 48.23,345.75 48.23,324.99 "
     fill="url(#linear-gradient)"
     id="polygon56"
     style="fill:url(#linearGradient223)"
     transform="matrix(-1.2347393,0,0,1.2416416,585.75445,-69.001823)" />
  <rect
     x="-526.20294"
     y="334.51926"
     width="537.74127"
     height="25.788897"
     fill="url(#linear-gradient-2)"
     id="rect58"
     style="fill:url(#linear-gradient-2);stroke-width:1.23818"
     transform="scale(-1,1)" />
  <path
     d="m 343.2997,25.364453 c 54.05145,-0.985714 113.84296,5.480571 150.3511,41.971713 35.29121,35.258994 38.20971,87.728564 39.22204,135.486424 q 1.09847,52.371 2.25079,104.66314 c 0.64616,30.38957 0.45231,63.29271 -19.43871,87.63 -21.74333,26.61428 -61.66537,35.38714 -97.89353,33.31714 -36.22813,-2.07 -71.15318,-12.94243 -107.09055,-17.65414 -90.99037,-11.92714 -187.99003,15.525 -273.595716,-15.13072 -19.923323,-7.13657 -39.2866422,-17.94985 -50.336013,-34.72671 -16.261737,-24.64286 -11.060138,-56.54057 0.172312,-83.46043 11.2324509,-26.91985 28.000348,-52.18371 34.117344,-80.454 C 31.494288,149.06173 10.64479,96.306306 33.066612,51.93931 56.414598,5.7388826 111.99529,-1.7821174 160.57588,7.6708826 223.83514,20.002167 277.8758,26.507882 343.2997,25.364453 Z"
     fill="#ff8d2c"
     opacity="0.8"
     style="isolation:isolate;stroke-width:1.03032"
     id="path60" />
  <path
     d="m 212.71503,193.04663 a 137.72281,138.4927 0 0 1 -24.91705,-54.71915 c -1.30883,-6.2082 -2.25958,-12.65233 -5.59336,-18.01621 a 103.12542,103.7019 0 0 0 -24.94173,2.09836 c 5.79092,36.23111 22.16356,69.94168 41.57366,101.01997 3.07451,4.96656 7.08741,10.30561 12.85363,10.61602 a 18.385268,18.488043 0 0 0 6.58117,-1.24163 c 5.56867,-1.81279 11.18674,-3.65043 16.13804,-6.76695 2.46948,-1.53964 9.32228,-6.09646 8.56909,-9.62272 -0.6791,-3.22828 -7.69242,-4.20917 -10.1866,-5.38872 -8.09988,-3.936 -14.61931,-10.83954 -20.07685,-17.97897 z"
     fill="#ff8d2c"
     id="path62"
     style="stroke-width:1.23818" />
  <path
     d="m 212.71503,193.04663 a 137.72281,138.4927 0 0 1 -24.91705,-54.71915 c -1.30883,-6.2082 -2.25958,-12.65233 -5.59336,-18.01621 a 103.12542,103.7019 0 0 0 -24.94173,2.09836 c 5.79092,36.23111 22.16356,69.94168 41.57366,101.01997 3.07451,4.96656 7.08741,10.30561 12.85363,10.61602 a 18.385268,18.488043 0 0 0 6.58117,-1.24163 c 5.56867,-1.81279 11.18674,-3.65043 16.13804,-6.76695 2.46948,-1.53964 9.32228,-6.09646 8.56909,-9.62272 -0.6791,-3.22828 -7.69242,-4.20917 -10.1866,-5.38872 -8.09988,-3.936 -14.61931,-10.83954 -20.07685,-17.97897 z"
     fill="url(#linear-gradient-3)"
     id="path64"
     style="fill:url(#linear-gradient-3);stroke-width:1.23818" />
  <path
     d="m 370.19367,194.95876 c 8.34683,-16.04202 13.05119,-33.78508 21.37333,-49.8395 0.7038,-1.35338 1.457,-2.91785 0.92606,-4.35816 a 5.1859049,5.2148947 0 0 0 -2.14845,-2.27221 69.145398,69.531927 0 0 0 -15.59476,-8.03342 148.77373,149.60539 0 0 1 -52.18007,74.49851 c -3.3338,2.48328 -7.19853,5.88536 -6.4083,10.00761 a 9.8779136,9.9331325 0 0 0 2.53122,4.42025 c 3.16093,3.62559 8.64317,9.82139 13.79203,9.78414 4.93896,0 11.29787,-4.29608 15.1873,-7.01528 9.71739,-6.85385 17.08879,-16.73733 22.52164,-27.19194 z"
     fill="#ff8d2c"
     id="path66"
     style="stroke-width:1.23818" />
  <path
     d="m 370.19367,194.95876 c 8.34683,-16.04202 13.05119,-33.78508 21.37333,-49.8395 0.7038,-1.35338 1.457,-2.91785 0.92606,-4.35816 a 5.1859049,5.2148947 0 0 0 -2.14845,-2.27221 69.145398,69.531927 0 0 0 -15.59476,-8.03342 148.77373,149.60539 0 0 1 -52.18007,74.49851 c -3.3338,2.48328 -7.19853,5.88536 -6.4083,10.00761 a 9.8779136,9.9331325 0 0 0 2.53122,4.42025 c 3.16093,3.62559 8.64317,9.82139 13.79203,9.78414 4.93896,0 11.29787,-4.29608 15.1873,-7.01528 9.71739,-6.85385 17.08879,-16.73733 22.52164,-27.19194 z"
     fill="url(#linear-gradient-4)"
     id="path68"
     style="fill:url(#linear-gradient-4);stroke-width:1.23818" />
  <path
     d="m 364.46448,209.41146 c 20.87944,-8.93982 40.88222,-19.86627 60.50222,-31.2397 2.04967,-1.24164 4.49445,-2.40878 6.65525,-1.44031 1.70394,0.75741 2.56825,2.61987 3.39553,4.29608 a 56.600447,56.91685 0 0 0 11.06326,15.34669 c -2.70407,2.84337 -6.47003,4.32092 -9.952,6.08404 -6.66759,3.37727 -12.63138,7.99618 -18.52109,12.56542 -19.92869,15.42118 -41.01804,31.2397 -65.83628,35.27503 a 21.225168,21.343818 0 0 1 -9.69272,-0.12419 c -3.86473,-1.17956 -6.90219,-4.14708 -9.68035,-7.08978 a 43.549254,43.792698 0 0 1 -6.1737,-7.73543 c -4.81547,-8.20725 2.76582,-12.41641 9.29759,-14.58928 9.7174,-3.27794 19.42244,-7.2636 28.94229,-11.34861 z"
     fill="#ff8d2c"
     id="path70"
     style="stroke-width:1.23818" />
  <path
     d="m 364.46448,209.41146 c 20.87944,-8.93982 40.88222,-19.86627 60.50222,-31.2397 2.04967,-1.24164 4.49445,-2.40878 6.65525,-1.44031 1.70394,0.75741 2.56825,2.61987 3.39553,4.29608 a 56.600447,56.91685 0 0 0 11.06326,15.34669 c -2.70407,2.84337 -6.47003,4.32092 -9.952,6.08404 -6.66759,3.37727 -12.63138,7.99618 -18.52109,12.56542 -19.92869,15.42118 -41.01804,31.2397 -65.83628,35.27503 a 21.225168,21.343818 0 0 1 -9.69272,-0.12419 c -3.86473,-1.17956 -6.90219,-4.14708 -9.68035,-7.08978 a 43.549254,43.792698 0 0 1 -6.1737,-7.73543 c -4.81547,-8.20725 2.76582,-12.41641 9.29759,-14.58928 9.7174,-3.27794 19.42244,-7.2636 28.94229,-11.34861 z"
     fill="url(#linear-gradient-5)"
     id="path72"
     style="fill:url(#linear-gradient-5);stroke-width:1.23818" />
  <path
     d="m 188.9216,226.80686 c -5.85268,-0.88157 -11.6189,-2.28463 -17.45921,-3.29035 -5.84033,-1.00573 -11.64359,-1.65138 -17.40983,-2.83094 a 185.54427,186.58147 0 0 1 -22.58338,-6.70487 c -11.29786,-3.88634 -22.7192,-7.83476 -32.695902,-14.42788 -1.926187,4.84242 -3.704214,9.77172 -5.173555,14.75071 a 4.4574087,4.4823261 0 0 0 -0.160516,3.12894 4.3956717,4.420244 0 0 0 1.419954,1.52721 c 3.53135,2.75645 7.075049,5.51289 10.766929,8.03343 11.11265,7.66092 23.59587,13.18623 36.01734,18.52528 a 150.46533,151.30644 0 0 0 23.02789,8.39351 c 11.77941,2.91785 24.05272,3.05444 36.17785,3.17859 a 12.767203,12.838575 0 0 0 4.93896,-0.62082 11.359601,11.423103 0 0 0 3.98821,-3.22826 29.460879,29.625568 0 0 0 6.74167,-11.83284 17.767898,17.867222 0 0 0 0.17287,-8.56733 c -0.97544,-4.02292 -1.92619,-4.37057 -5.76623,-4.45749 a 173.41913,174.38856 0 0 1 -22.00305,-1.57689 z"
     fill="#ff8d2c"
     id="path74"
     style="stroke-width:1.23818" />
  <path
     d="m 188.9216,226.80686 c -5.85268,-0.88157 -11.6189,-2.28463 -17.45921,-3.29035 -5.84033,-1.00573 -11.64359,-1.65138 -17.40983,-2.83094 a 185.54427,186.58147 0 0 1 -22.58338,-6.70487 c -11.29786,-3.88634 -22.7192,-7.83476 -32.695902,-14.42788 -1.926187,4.84242 -3.704214,9.77172 -5.173555,14.75071 a 4.4574087,4.4823261 0 0 0 -0.160516,3.12894 4.3956717,4.420244 0 0 0 1.419954,1.52721 c 3.53135,2.75645 7.075049,5.51289 10.766929,8.03343 11.11265,7.66092 23.59587,13.18623 36.01734,18.52528 a 150.46533,151.30644 0 0 0 23.02789,8.39351 c 11.77941,2.91785 24.05272,3.05444 36.17785,3.17859 a 12.767203,12.838575 0 0 0 4.93896,-0.62082 11.359601,11.423103 0 0 0 3.98821,-3.22826 29.460879,29.625568 0 0 0 6.74167,-11.83284 17.767898,17.867222 0 0 0 0.17287,-8.56733 c -0.97544,-4.02292 -1.92619,-4.37057 -5.76623,-4.45749 a 173.41913,174.38856 0 0 1 -22.00305,-1.57689 z"
     fill="url(#linear-gradient-6)"
     id="path76"
     style="fill:url(#linear-gradient-6);stroke-width:1.23818" />
  <path
     d="m 172.73416,95.925433 a 10.050778,10.106963 0 0 0 -5.8897,-0.446997 39.96851,40.191937 0 0 0 -7.56895,1.912127 8.2233635,8.269333 0 0 0 -2.69174,1.40306 c -2.46948,2.123207 -2.07436,6.208207 -0.3951,9.014307 1.67923,2.80612 4.30923,4.96657 6.11195,7.64851 2.54356,3.87393 3.96351,8.10793 8.97655,9.32473 3.79065,0.91882 5.19825,-0.79464 5.55633,-4.38299 0.62972,-6.23304 2.87694,-21.058237 -4.09934,-24.472747 z"
     fill="url(#linear-gradient-7)"
     id="path78"
     style="fill:url(#linearGradient225);stroke-width:1.23818" />
  <path
     d="m 256.64705,309.14011 c -4.7661,0.16143 -9.81619,0.26074 -13.95255,-2.13563 a 8.0628475,8.1079195 0 0 1 -3.28442,-3.22825 11.433686,11.497601 0 0 1 -0.86431,-4.86724 l -0.45686,-12.98756 c -0.24695,-7.00287 -0.49389,-14.06782 0.79024,-20.95892 1.16065,-6.20821 3.54369,-12.18051 5.48224,-18.23971 a 256.73933,258.17454 0 0 0 7.09975,-30.48231 c 4.51915,2.88061 9.16176,5.8233 14.40941,6.85386 9.81618,1.83763 19.44715,-3.12894 28.1644,-8.021 l -0.54329,21.39349 c -0.17286,6.97802 -0.34573,14.0057 0.92606,20.87198 2.19783,11.78318 17.86668,36.93884 7.85294,48.00188 -3.70422,4.10982 -12.5326,2.69435 -17.39748,2.85576 z"
     fill="#ffffff"
     id="path80"
     style="stroke-width:1.23818" />
  <path
     d="m 289.93561,204.25865 a 14.742787,14.8252 0 0 1 1.80273,1.93696 c 1.00014,1.62655 0.37042,3.79943 -0.67911,5.41356 a 25.929524,26.074474 0 0 1 -11.77941,8.2445 23.29953,23.429776 0 0 1 -5.64276,0.58356 c -3.17329,0.0621 -6.54412,0 -9.2482,-1.65138 a 15.236682,15.321857 0 0 1 -4.33393,-4.6934 26.435767,26.583547 0 0 1 -3.55605,-6.99044 0.93840184,0.9436476 0 0 1 0,-0.58357 c 0.1111,-0.29799 0.45685,-0.39733 0.74084,-0.52149 1.457,-0.60841 2.00027,-2.35912 2.38304,-3.89877 l 1.38292,-5.72396 a 1.7286349,1.7382982 0 0 1 0.30869,-0.70774 1.5804663,1.5893012 0 0 1 1.07422,-0.39731 114.54676,115.18709 0 0 1 14.81687,-0.54633 c 2.55591,0.0744 5.09946,0.24832 7.64303,0.48424 2.17314,0.18625 2.46948,0.64566 2.80286,2.83095 0.33337,2.18529 0.74084,4.5444 2.28426,6.22062 z"
     fill="url(#linear-gradient-8)"
     id="path82"
     style="fill:url(#linear-gradient-8);stroke-width:1.23818" />
  <path
     d="m 292.97307,184.52896 a 29.633743,29.799398 0 0 1 -2.09905,10.4422 17.866678,17.966554 0 0 1 -7.8159,7.95893 27.448255,27.601692 0 0 1 -10.85335,2.95511 16.051611,16.141341 0 0 1 -8.64319,-1.31613 19.27428,19.382026 0 0 1 -4.49444,-3.66285 22.892066,23.020035 0 0 1 -4.00055,-4.96657 21.36099,21.480399 0 0 1 -1.96325,-5.79846 89.40747,89.907267 0 0 1 -1.67923,-28.81851 15.594757,15.681933 0 0 1 1.3829,-5.64946 16.693675,16.786994 0 0 1 5.25999,-5.32666 c 3.81533,-2.83093 7.87764,-5.71154 12.56964,-6.40686 a 22.422865,22.548211 0 0 1 11.77941,2.02388 22.805633,22.93312 0 0 1 7.68009,4.87965 c 3.93881,4.02291 4.03759,9.16331 3.88941,14.4527 -0.13581,6.45655 -0.51858,12.851 -1.01248,19.23303 z"
     fill="url(#linear-gradient-9)"
     id="path84"
     style="fill:url(#linear-gradient-9);stroke-width:1.23818" />
  <path
     d="m 247.70754,172.28639 a 2.1854886,2.1977057 0 0 0 -2.27193,0.76981 3.3214487,3.3400159 0 0 0 0.0988,3.00477 c 1.1483,2.97994 2.97572,5.97229 5.93908,7.13944 a 0.64206442,0.64565361 0 0 0 0.37044,0.0621 0.69145398,0.69531927 0 0 0 0.25928,-0.21108 c 1.37058,-1.71346 0,-4.43265 -0.48155,-6.2082 -0.48154,-1.77555 -1.86444,-4.06017 -3.91411,-4.55682 z"
     fill="url(#linear-gradient-10)"
     id="path86"
     style="fill:url(#linear-gradient-10);stroke-width:1.23818" />
  <path
     d="m 295.02274,173.65218 a 5.0624309,5.0907304 0 0 1 1.72864,-1.11747 2.2966151,2.3094534 0 0 1 1.98793,0.18625 2.4694785,2.4832831 0 0 1 0.9137,2.07354 7.2726143,7.313269 0 0 1 -0.59267,2.28462 l -1.14831,2.99235 a 5.5439794,5.5749707 0 0 1 -0.67911,1.39064 4.778441,4.8051528 0 0 1 -1.13595,1.04298 4.432714,4.4574932 0 0 1 -1.67925,0.81949 1.7656772,1.7755474 0 0 1 -1.70394,-0.54633 2.3460047,2.359119 0 0 1 -0.40746,-1.15473 8.3591848,8.4059135 0 0 1 2.71642,-7.97134 z"
     fill="url(#linear-gradient-11)"
     id="path88"
     style="fill:url(#linear-gradient-11);stroke-width:1.23818" />
  <path
     d="m 293.22003,176.12304 a 45.31493,45.568246 0 0 0 -2.27192,-17.84237 5.3587685,5.3887245 0 0 0 -1.54344,-2.6447 c -1.54342,-1.24165 -4.23514,-0.81949 -5.09947,-2.58262 -0.27165,-0.54632 -0.43216,-1.35339 -1.03718,-1.40306 a 1.3211711,1.3285565 0 0 0 -0.86432,0.40975 c -3.32145,2.64469 -7.86529,2.94268 -12.10044,2.95511 -4.23515,0.0126 -8.70491,-0.0621 -12.34739,2.06112 a 5.5069371,5.5377214 0 0 0 -1.90149,1.63897 c -0.91372,1.39064 -0.76554,3.20343 -0.69147,4.86723 a 40.054942,40.278853 0 0 1 -2.46948,15.74402 l -5.17355,-6.96561 a 19.521228,19.630353 0 0 1 -2.69174,-4.35816 12.989457,13.062069 0 0 1 -0.81491,-4.69341 13.199363,13.273149 0 0 1 3.59308,-9.59789 5.7291902,5.7612169 0 0 0 1.23473,-1.44031 5.1365153,5.165229 0 0 0 0.35809,-2.08595 18.619868,18.723955 0 0 1 5.27232,-11.23686 15.360156,15.446021 0 0 1 16.49613,-4.74307 53.007356,53.303673 0 0 1 10.29773,4.17192 8.1616265,8.2072508 0 0 0 2.28426,0.81948 11.013874,11.075442 0 0 0 2.69173,-0.17383 12.112792,12.180504 0 0 1 12.2733,7.69818 c 1.64222,4.5444 0.39513,9.54822 0,14.36579 a 54.155664,54.458399 0 0 1 -1.08655,8.00859 13.816732,13.89397 0 0 1 -1.61752,3.97326 c -0.44451,0.62081 -2.75346,2.57019 -2.7905,3.05442 z"
     fill="#606161"
     id="path90"
     style="stroke-width:1.23818" />
  <path
     d="m 329.16328,215.7935 c 7.1368,4.17191 12.10045,11.17477 17.0888,17.79273 a 368.44619,370.50585 0 0 0 35.80743,40.97417 c 1.75334,1.73829 3.70422,3.72491 3.803,6.2082 a 9.1370705,9.1881476 0 0 1 -0.72849,3.6256 56.094205,56.407776 0 0 1 -11.32256,18.93503 3.111543,3.1289368 0 0 1 -1.61751,1.12989 3.1362378,3.1537697 0 0 1 -2.21018,-0.85672 224.37681,225.63111 0 0 1 -34.48628,-31.59979 153.53982,154.39813 0 0 0 1.39526,32.72968 2.3460047,2.359119 0 0 1 -0.22225,1.80038 2.2842676,2.2970369 0 0 1 -1.75333,0.55873 l -35.22711,0.98091 c -1.13597,-4.59408 -1.3829,-9.34957 -2.35836,-13.98089 -1.02482,-4.85483 -2.8399,-9.49856 -4.14872,-14.27888 -5.97614,-21.95223 -0.90136,-45.18334 -0.4692,-67.94263 a 32.658854,32.841421 0 0 0 -0.81492,-7.23877 c 2.04966,-0.63324 5.3958,1.81279 7.40843,2.48328 a 78.628197,79.067736 0 0 0 10.10017,2.59503 c 6.74168,1.41548 13.71794,2.55778 19.75582,6.08405 z"
     fill="#ff8d2c"
     id="path92"
     style="stroke-width:1.23818" />
  <path
     d="m 329.16328,215.7935 c 7.1368,4.17191 12.10045,11.17477 17.0888,17.79273 a 368.44619,370.50585 0 0 0 35.80743,40.97417 c 1.75334,1.73829 3.70422,3.72491 3.803,6.2082 a 9.1370705,9.1881476 0 0 1 -0.72849,3.6256 56.094205,56.407776 0 0 1 -11.32256,18.93503 3.111543,3.1289368 0 0 1 -1.61751,1.12989 3.1362378,3.1537697 0 0 1 -2.21018,-0.85672 224.37681,225.63111 0 0 1 -34.48628,-31.59979 153.53982,154.39813 0 0 0 1.39526,32.72968 2.3460047,2.359119 0 0 1 -0.22225,1.80038 2.2842676,2.2970369 0 0 1 -1.75333,0.55873 l -35.22711,0.98091 c -1.13597,-4.59408 -1.3829,-9.34957 -2.35836,-13.98089 -1.02482,-4.85483 -2.8399,-9.49856 -4.14872,-14.27888 -5.97614,-21.95223 -0.90136,-45.18334 -0.4692,-67.94263 a 32.658854,32.841421 0 0 0 -0.81492,-7.23877 c 2.04966,-0.63324 5.3958,1.81279 7.40843,2.48328 a 78.628197,79.067736 0 0 0 10.10017,2.59503 c 6.74168,1.41548 13.71794,2.55778 19.75582,6.08405 z"
     fill="url(#linear-gradient-12)"
     id="path94"
     style="fill:url(#linear-gradient-12);stroke-width:1.23818" />
  <path
     d="m 220.8396,214.22903 a 14.137765,14.216795 0 0 0 -4.61792,1.35339 13.298141,13.37248 0 0 0 -3.63013,3.53868 c -9.43342,12.03151 -16.84185,25.50332 -25.28746,38.25497 -8.44562,12.75166 -18.20006,25.00667 -31.01666,33.276 -0.92605,0.60841 -1.97557,1.35339 -2.01262,2.48329 a 3.4078804,3.4269308 0 0 0 1.01248,2.13561 l 15.44659,18.87296 a 1.9261932,1.9369609 0 0 0 3.0992,0.42215 c 13.92787,-8.34383 25.92954,-19.48134 37.90649,-30.53196 l -1.90149,18.82329 a 6.729329,6.7669466 0 0 0 0.53093,4.35816 c 1.23475,1.8873 3.79065,2.09837 6.01319,2.11079 l 27.62112,0.1242 a 2.9016374,2.9178576 0 0 0 3.61778,-3.72492 q -1.07422,-16.43934 -0.86432,-32.94075 a 162.26943,163.17653 0 0 1 1.97558,-26.1614 c 1.17301,-6.71728 3.00041,-13.29798 4.21046,-20.00284 a 147.79829,148.62449 0 0 0 1.90151,-15.7316 c 0.50624,-6.79178 -0.95076,-6.10887 -6.48239,-3.84908 -8.84073,3.62558 -18.20006,5.56255 -27.52234,7.1891 z"
     fill="#ff8d2c"
     id="path96"
     style="stroke-width:1.23818" />
  <path
     d="m 220.8396,214.22903 a 14.137765,14.216795 0 0 0 -4.61792,1.35339 13.298141,13.37248 0 0 0 -3.63013,3.53868 c -9.43342,12.03151 -16.84185,25.50332 -25.28746,38.25497 -8.44562,12.75166 -18.20006,25.00667 -31.01666,33.276 -0.92605,0.60841 -1.97557,1.35339 -2.01262,2.48329 a 3.4078804,3.4269308 0 0 0 1.01248,2.13561 l 15.44659,18.87296 a 1.9261932,1.9369609 0 0 0 3.0992,0.42215 c 13.92787,-8.34383 25.92954,-19.48134 37.90649,-30.53196 l -1.90149,18.82329 a 6.729329,6.7669466 0 0 0 0.53093,4.35816 c 1.23475,1.8873 3.79065,2.09837 6.01319,2.11079 l 27.62112,0.1242 a 2.9016374,2.9178576 0 0 0 3.61778,-3.72492 q -1.07422,-16.43934 -0.86432,-32.94075 a 162.26943,163.17653 0 0 1 1.97558,-26.1614 c 1.17301,-6.71728 3.00041,-13.29798 4.21046,-20.00284 a 147.79829,148.62449 0 0 0 1.90151,-15.7316 c 0.50624,-6.79178 -0.95076,-6.10887 -6.48239,-3.84908 -8.84073,3.62558 -18.20006,5.56255 -27.52234,7.1891 z"
     fill="url(#linear-gradient-13)"
     id="path98"
     style="fill:url(#linear-gradient-13);stroke-width:1.23818" />
  <path
     d="m 279.00818,222.88327 a 28.621257,28.781252 0 0 1 6.47003,11.74593 84.604334,85.07728 0 0 0 7.87763,-22.68479 c 0.25929,-1.24165 1.55578,-7.22636 -1.13596,-5.58739 -1.23474,0.7574 -2.33365,5.02866 -3.2597,6.3572 -0.77789,1.11748 -7.72947,5.53774 -11.01388,6.94078 -0.67911,0.31041 0.56797,2.68195 1.06188,3.22827 z"
     fill="#ffffff"
     id="path100"
     style="stroke-width:1.23818" />
  <path
     d="m 270.25387,220.30066 c 4.51914,-1.88729 12.34739,-0.55875 10.71754,5.2273 -0.56799,2.01147 -2.74112,3.16619 -3.53135,5.10316 -1.33352,3.25309 1.71629,6.45653 3.48196,9.49855 1.91385,3.30276 2.3954,7.22636 2.82755,11.02579 l 6.53178,56.86718 a 65.725171,66.092581 0 0 1 -17.28636,1.24163 2.1731411,2.1852891 0 0 1 -1.41994,-0.42215 2.2595728,2.272204 0 0 1 -0.49391,-1.68863 c -0.22225,-16.91117 1.88916,-33.89682 -0.16051,-50.68382 -0.90136,-7.3381 -2.54356,-15.01143 0.0864,-21.90255 0.49389,-1.31613 1.16066,-2.74403 0.67911,-4.06016 -0.48156,-1.31615 -1.65456,-1.87489 -2.46948,-2.80612 -3.40788,-3.57592 -1.9015,-6.17096 1.03717,-7.40018 z"
     fill="url(#linear-gradient-14)"
     id="path102"
     style="fill:url(#linear-gradient-14);stroke-width:1.23818" />
  <path
     d="m 269.69824,219.84125 c 0.60502,0.29799 1.32117,0.75741 1.23473,1.42789 a 1.5928136,1.6017176 0 0 1 -0.44449,0.79465 q -3.88944,4.43266 -7.91469,8.69149 a 1.5434241,1.5520519 0 0 1 -0.93839,0.59599 1.4940345,1.5023863 0 0 1 -0.91372,-0.34767 13.582132,13.658057 0 0 1 -4.72906,-7.02768 41.166208,41.396331 0 0 1 -1.46934,-8.48042 c -0.1852,-1.91212 -0.82726,-5.77363 0.70381,-7.3381 1.87681,-1.92455 3.0745,1.41547 4.04995,2.75645 a 29.065762,29.228243 0 0 0 10.4212,8.9274 z"
     fill="#ffffff"
     id="path104"
     style="stroke-width:1.23818" />
  <path
     d="m 156.74429,330.27286 21.15108,-4.7679 a 4.6920091,4.7182379 0 0 0 3.28442,-6.75454 l -19.84227,-46.47464 a 7.2849617,7.3256853 0 0 0 -7.95172,-4.18434 l -21.15108,4.80515 a 4.6796619,4.7058216 0 0 0 -3.28441,6.75454 l 19.84226,46.47463 a 7.2849617,7.3256853 0 0 0 7.95172,4.1471 z"
     fill="#ff8d2c"
     id="path106"
     style="stroke-width:1.23818" />
  <path
     d="m 156.74429,330.27286 21.15108,-4.7679 a 4.6920091,4.7182379 0 0 0 3.28442,-6.75454 l -19.84227,-46.47464 a 7.2849617,7.3256853 0 0 0 -7.95172,-4.18434 l -21.15108,4.80515 a 4.6796619,4.7058216 0 0 0 -3.28441,6.75454 l 19.84226,46.47463 a 7.2849617,7.3256853 0 0 0 7.95172,4.1471 z"
     fill="url(#linear-gradient-15)"
     id="path108"
     style="fill:url(#linear-gradient-15);stroke-width:1.23818" />
  <path
     d="m 154.52176,331.94907 21.15108,-4.80515 a 4.6920091,4.7182379 0 0 0 3.28441,-6.75454 l -19.84226,-46.47463 a 7.2849617,7.3256853 0 0 0 -7.95172,-4.18434 l -21.17577,4.86723 a 4.6796619,4.7058216 0 0 0 -3.28442,6.75454 l 19.84226,46.47464 a 7.2849617,7.3256853 0 0 0 7.97642,4.12225 z"
     fill="#ff8d2c"
     id="path110"
     style="stroke-width:1.23818" />
  <path
     d="m 154.52176,331.94907 21.15108,-4.80515 a 4.6920091,4.7182379 0 0 0 3.28441,-6.75454 l -19.84226,-46.47463 a 7.2849617,7.3256853 0 0 0 -7.95172,-4.18434 l -21.17577,4.86723 a 4.6796619,4.7058216 0 0 0 -3.28442,6.75454 l 19.84226,46.47464 a 7.2849617,7.3256853 0 0 0 7.97642,4.12225 z"
     fill="url(#linear-gradient-16)"
     id="path112"
     style="fill:url(#linear-gradient-16);stroke-width:1.23818" />
  <path
     d="m 138.26025,309.36361 a 4.0375974,4.060168 0 0 1 1.34585,1.36581 6.0625697,6.0964602 0 0 1 0.12345,2.02387 c 0.074,1.57689 1.23474,2.88061 1.69159,4.39542 0.24695,0.83189 0.27164,1.70105 0.4445,2.55777 a 9.4457553,9.4985581 0 0 0 5.7045,6.40688 23.904552,24.038181 0 0 0 8.70491,1.5893 33.683687,33.871982 0 0 0 7.48252,-0.31042 3.9511656,3.9732531 0 0 0 2.7905,-1.45272 3.0004163,3.0171891 0 0 0 -1.00013,-3.72493 8.7296066,8.7784059 0 0 0 -3.9882,-1.3658 c 1.6175,-0.18625 2.46948,-2.29703 1.85211,-3.79942 a 5.0871257,5.1155633 0 0 0 -3.79065,-2.71919 5.4205053,5.4508065 0 0 0 -4.56854,-5.9723 6.3465599,6.3820377 0 0 1 -1.75333,-0.27316 7.3343512,7.375351 0 0 1 -1.83976,-1.61414 8.0628475,8.1079195 0 0 0 -4.28455,-1.63896 c -2.80285,-0.43458 -6.67994,-1.30373 -9.49514,-0.68291 -2.65469,0.54633 -0.92606,3.97326 0.58033,5.2149 z"
     fill="url(#linear-gradient-17)"
     id="path114"
     style="fill:url(#linear-gradient-17);stroke-width:1.23818" />
  <path
     d="m 144.66855,298.99591 a 14.631661,14.713452 0 0 1 3.58073,1.0678 2.7164264,2.7316114 0 0 1 1.49404,3.09169 3.6301334,3.6504263 0 0 1 -0.83962,1.15472 3.7906495,3.8118396 0 0 1 -3.92647,1.5024 c -2.00029,-0.17383 -4.00057,-0.39733 -5.98849,-0.67049 a 5.1735575,5.2024782 0 0 1 -3.16093,-1.24165 5.3834631,5.4135572 0 0 1 -1.08657,-2.48328 c -2.12375,-8.19483 5.93909,-3.46418 9.92731,-2.42119 z"
     fill="url(#linear-gradient-18)"
     id="path116"
     style="fill:url(#linear-gradient-18);stroke-width:1.23818" />
  <path
     d="m 451.9581,166.37617 a 2.012625,2.0238758 0 0 1 1.35822,-0.34766 c 0.74084,0.16141 1.07422,1.08023 1.00014,1.83762 -0.074,0.75741 -0.38278,1.50239 -0.37042,2.27221 0,2.03629 2.23487,3.27793 4.18575,3.79943 4.5315,1.24164 9.28525,0.96847 13.95257,1.24164 4.6673,0.27316 9.56922,1.1423 13.14997,4.17191 -3.37085,5.92263 -10.97683,7.74784 -17.75555,7.99617 -6.77873,0.24833 -13.92786,-0.43457 -19.99044,2.6447 a 14.816871,14.899699 0 0 1 -3.19797,1.42788 6.889845,6.92836 0 0 1 -6.43299,-2.59503 c -4.13638,-4.80514 -1.93854,-7.77267 1.59281,-12.06875 a 43.018316,43.258792 0 0 1 12.50791,-10.38012 z"
     fill="url(#linear-gradient-19)"
     id="path118"
     style="fill:url(#linear-gradient-19);stroke-width:1.23818" />
  <path
     d="m 454.61279,175.53948 c -0.14817,1.66379 1.38291,2.93027 2.76582,3.84908 a 22.583381,22.709624 0 0 0 7.26026,3.47661 25.00347,25.143242 0 0 0 8.35919,0 24.694785,24.832831 0 0 0 5.60571,-1.1299 8.1245844,8.1700015 0 0 0 4.38334,-3.53867 c -0.45686,0.85673 -14.52054,-1.98664 -16.05161,-2.28463 a 59.539128,59.871957 0 0 1 -7.89,-2.01146 c -2.65469,-0.95606 -4.12403,-1.89971 -4.43271,1.63897 z"
     fill="url(#linear-gradient-20)"
     id="path120"
     style="fill:url(#linear-gradient-20);stroke-width:1.23818" />
  <path
     d="m 92.340286,193.19562 c -1.419954,-3.86151 -2.308963,-8.09549 -5.050088,-11.17477 -2.222526,-2.48328 -5.383457,-3.83667 -8.433258,-5.12797 a 5.5316319,5.5625542 0 0 0 -0.37042,7.44984 14.483492,14.564455 0 0 1 -8.779004,-6.2827 c -1.234734,-2.04872 -2.469479,-4.71825 -4.852521,-5.02866 -2.197833,-0.27315 -4.000553,1.72589 -5.087128,3.66285 -3.704213,6.54345 -4.025246,15.45843 0.827276,21.19482 a 27.164264,27.316114 0 0 0 9.001253,6.2082 q 6.667589,3.35243 13.582129,6.20822 c 3.79065,1.55205 7.791203,3.01718 11.878192,2.71919 a 3.4078804,3.4269308 0 0 0 2.049673,-0.65807 3.7042178,3.7249247 0 0 0 0.864306,-1.32856 c 1.321171,-2.97994 2.827564,-7.10219 0.740848,-9.70964 -2.395389,-2.89302 -4.901918,-4.17192 -6.371258,-8.13275 z"
     fill="url(#linear-gradient-21)"
     id="path122"
     style="fill:url(#linear-gradient-21);stroke-width:1.23818" />
  <path
     d="M 88.327386,168.23863 73.04131,199.81358 c 0,0 -8.890124,-1.11748 -11.11265,-5.58739 l 7.556607,-34.09548 c 0,0 16.903576,2.23496 18.842119,8.10792 z"
     fill="#ff8d2c"
     id="path124"
     style="stroke-width:1.23818" />
  <path
     d="M 88.327386,168.23863 73.04131,199.81358 c 0,0 -8.890124,-1.11748 -11.11265,-5.58739 l 7.556607,-34.09548 c 0,0 16.903576,2.23496 18.842119,8.10792 z"
     fill="url(#linear-gradient-22)"
     id="path126"
     style="fill:url(#linear-gradient-22);stroke-width:1.23818" />
  <path
     d="m 90.068373,163.55763 c 0,0 -4.729055,-6.64277 -16.187441,-7.20151 l -3.704213,2.09838 -0.691452,1.67621 -0.283993,1.11748 c 0,0 12.791894,0.42216 19.595315,8.38108 0,0 1.8768,0.21107 1.592807,-0.8319 -0.283983,-1.04298 -0.617372,-2.09838 -0.617372,-2.09838 z"
     fill="#ffffff"
     id="path128"
     style="stroke-width:1.23818" />
  <ellipse
     cx="-474.46735"
     cy="163.49557"
     rx="20.150946"
     ry="17.047737"
     fill="#ff8d2c"
     id="ellipse130"
     style="stroke-width:1.23818"
     transform="scale(-1,1)" />
  <ellipse
     cx="-474.46735"
     cy="163.49557"
     rx="20.150946"
     ry="17.047737"
     fill="url(#linear-gradient-23)"
     id="ellipse132"
     style="fill:url(#linear-gradient-23);stroke-width:1.23818"
     transform="scale(-1,1)" />
  <ellipse
     cx="-492.85266"
     cy="154.54333"
     fill="#ff8d2c"
     id="circle134"
     rx="5.3217263"
     ry="5.3514748"
     style="stroke-width:1.23818"
     transform="scale(-1,1)" />
  <ellipse
     cx="-478.5914"
     cy="154.35709"
     fill="#ff8d2c"
     id="circle136"
     rx="5.3217263"
     ry="5.3514748"
     style="stroke-width:1.23818"
     transform="scale(-1,1)" />
  <ellipse
     cx="-493.06253"
     cy="155.02757"
     fill="url(#linear-gradient-24)"
     id="circle138"
     style="fill:url(#linear-gradient-24);stroke-width:1.23818"
     rx="4.6426196"
     ry="4.6685724"
     transform="scale(-1,1)" />
  <ellipse
     cx="-478.69019"
     cy="154.7296"
     fill="url(#linear-gradient-25)"
     id="circle140"
     style="fill:url(#linear-gradient-25);stroke-width:1.23818"
     rx="4.6426196"
     ry="4.6685724"
     transform="scale(-1,1)" />
  <ellipse
     cx="-485.40717"
     cy="164.37715"
     fill="#ff8d2c"
     id="circle142"
     rx="12.54495"
     ry="12.615079"
     style="stroke-width:1.23818"
     transform="scale(-1,1)" />
  <ellipse
     cx="-485.40717"
     cy="164.37715"
     fill="url(#linear-gradient-26)"
     id="circle144"
     style="fill:url(#linear-gradient-26);stroke-width:1.23818"
     rx="12.54495"
     ry="12.615079"
     transform="scale(-1,1)" />
  <ellipse
     cx="-492.37112"
     cy="166.52518"
     rx="5.7168427"
     ry="5.016232"
     fill="url(#linear-gradient-27)"
     id="ellipse146"
     style="fill:url(#linear-gradient-27);stroke-width:1.23818"
     transform="scale(-1,1)" />
  <ellipse
     cx="-494.03799"
     cy="166.52518"
     rx="5.7168427"
     ry="5.016232"
     fill="#ff8d2c"
     id="ellipse148"
     style="stroke-width:1.23818"
     transform="scale(-1,1)" />
  <ellipse
     cx="-494.03799"
     cy="166.52518"
     rx="5.7168427"
     ry="5.016232"
     fill="url(#linear-gradient-28)"
     id="ellipse150"
     style="fill:url(#linear-gradient-28);stroke-width:1.23818"
     transform="scale(-1,1)" />
  <path
     d="m 378.096,119.57869 a 13.680911,13.757389 0 0 1 0.85197,-4.50716 c 0.95074,-2.18529 2.95102,-3.72492 4.86488,-5.09073 a 7.7418152,7.7850927 0 0 1 4.21045,-1.89971 1.7039401,1.7134654 0 0 1 1.09893,0.32284 c 0.61736,0.50907 0.46919,1.50238 0.12344,2.22252 a 4.9389571,4.9665663 0 0 0 -0.85197,2.22255 12.964763,13.037237 0 0 0 9.97668,-0.68291 c 1.66691,-0.85672 3.3832,-2.11078 5.21061,-1.73829 a 4.0869869,4.1098336 0 0 1 2.91399,3.15376 8.1863213,8.2320836 0 0 1 -0.41981,4.46992 17.990151,18.090718 0 0 1 -6.44535,8.91497 c -3.70421,2.75646 -8.56909,4.06018 -11.68063,7.52436 a 6.037875,6.0716273 0 0 1 -1.65455,1.52721 3.8770814,3.8987545 0 0 1 -1.98792,0.27317 c -2.46948,-0.19867 -6.35892,-1.76314 -7.08742,-4.38299 -0.4445,-1.55206 0.29635,-4.234 0.40747,-5.86055 z"
     fill="url(#linear-gradient-29)"
     id="path152"
     style="fill:url(#linear-gradient-29);stroke-width:1.23818" />
  <rect
     x="-394.6832"
     y="164.11189"
     width="32.800755"
     height="39.39006"
     rx="4.8163762"
     transform="matrix(-0.98313614,0.18287518,0.18091433,0.98349886,0,0)"
     fill="#ff8d2c"
     id="rect154"
     style="stroke-width:1.23818" />
  <rect
     x="-394.6832"
     y="164.11189"
     width="32.800755"
     height="39.39006"
     rx="4.8163762"
     transform="matrix(-0.98313614,0.18287518,0.18091433,0.98349886,0,0)"
     fill="url(#linear-gradient-30)"
     id="rect156"
     style="fill:url(#linear-gradient-30);stroke-width:1.23818" />
  <rect
     x="-396.23218"
     y="163.32948"
     width="32.800755"
     height="39.39006"
     rx="4.8163762"
     transform="matrix(-0.98313614,0.18287518,0.18091433,0.98349886,0,0)"
     fill="#ff8d2c"
     id="rect158"
     style="stroke-width:1.23818" />
  <rect
     x="-396.29147"
     y="163.24461"
     width="32.800755"
     height="39.39006"
     rx="4.8163762"
     transform="matrix(-0.98313614,0.18287518,0.18091433,0.98349886,0,0)"
     fill="url(#linear-gradient-31)"
     id="rect160"
     style="fill:url(#linear-gradient-31);stroke-width:1.23818" />
  <rect
     x="-396.05524"
     y="161.2644"
     width="27.650192"
     height="7.821116"
     transform="matrix(-0.98560603,0.16905845,0.16723678,0.98591676,0,0)"
     fill="#edf4fb"
     id="rect162"
     style="stroke-width:1.23818" />
  <rect
     x="-396.3161"
     y="173.31435"
     width="6.1993814"
     height="4.1588421"
     transform="matrix(-0.98548714,0.16975012,0.16792143,0.98580038,0,0)"
     fill="#edf4fb"
     id="rect164"
     style="stroke-width:1.23818" />
  <rect
     x="-389.18082"
     y="173.33043"
     width="6.1993814"
     height="4.1588421"
     transform="matrix(-0.98548714,0.16975012,0.16792143,0.98580038,0,0)"
     fill="#edf4fb"
     id="rect166"
     style="stroke-width:1.23818" />
  <rect
     x="-382.04776"
     y="173.31979"
     width="6.1993814"
     height="4.1588421"
     transform="matrix(-0.98548714,0.16975012,0.16792143,0.98580038,0,0)"
     fill="#edf4fb"
     id="rect168"
     style="stroke-width:1.23818" />
  <rect
     x="-374.94974"
     y="173.3214"
     width="6.1993814"
     height="4.1588421"
     transform="matrix(-0.98548714,0.16975012,0.16792143,0.98580038,0,0)"
     fill="#edf4fb"
     id="rect170"
     style="stroke-width:1.23818" />
  <rect
     x="-396.30453"
     y="178.21535"
     width="6.1993814"
     height="4.1588421"
     transform="matrix(-0.98548714,0.16975012,0.16792143,0.98580038,0,0)"
     fill="#edf4fb"
     id="rect172"
     style="stroke-width:1.23818" />
  <rect
     x="-389.18158"
     y="178.23145"
     width="6.1993814"
     height="4.1588421"
     transform="matrix(-0.98548714,0.16975012,0.16792143,0.98580038,0,0)"
     fill="#edf4fb"
     id="rect174"
     style="stroke-width:1.23818" />
  <rect
     x="-381.18021"
     y="179.40425"
     width="6.227221"
     height="4.1775117"
     transform="matrix(-0.98541664,0.17015888,0.16832604,0.98573138,0,0)"
     fill="#edf4fb"
     id="rect176"
     style="stroke-width:1.24375" />
  <rect
     x="-374.96268"
     y="178.22449"
     width="6.1993814"
     height="4.1588421"
     transform="matrix(-0.98548714,0.16975012,0.16792143,0.98580038,0,0)"
     fill="#edf4fb"
     id="rect178"
     style="stroke-width:1.23818" />
  <rect
     x="-396.31747"
     y="183.11844"
     width="6.1993814"
     height="4.1588421"
     transform="matrix(-0.98548714,0.16975012,0.16792143,0.98580038,0,0)"
     fill="#edf4fb"
     id="rect180"
     style="stroke-width:1.23818" />
  <rect
     x="-389.17209"
     y="183.12019"
     width="6.1993814"
     height="4.1588421"
     transform="matrix(-0.98548714,0.16975012,0.16792143,0.98580038,0,0)"
     fill="#edf4fb"
     id="rect182"
     style="stroke-width:1.23818" />
  <rect
     x="-382.04916"
     y="183.12389"
     width="6.1993814"
     height="4.1588421"
     transform="matrix(-0.98548714,0.16975012,0.16792143,0.98580038,0,0)"
     fill="#edf4fb"
     id="rect184"
     style="stroke-width:1.23818" />
  <rect
     x="-374.95111"
     y="183.1255"
     width="6.1993814"
     height="4.1588421"
     transform="matrix(-0.98548714,0.16975012,0.16792143,0.98580038,0,0)"
     fill="#edf4fb"
     id="rect186"
     style="stroke-width:1.23818" />
  <rect
     x="-396.30591"
     y="188.01942"
     width="6.1993814"
     height="4.1588421"
     transform="matrix(-0.98548714,0.16975012,0.16792143,0.98580038,0,0)"
     fill="#edf4fb"
     id="rect188"
     style="stroke-width:1.23818" />
  <rect
     x="-389.17288"
     y="188.0088"
     width="6.1993814"
     height="4.1588421"
     transform="matrix(-0.98548714,0.16975012,0.16792143,0.98580038,0,0)"
     fill="#edf4fb"
     id="rect190"
     style="stroke-width:1.23818" />
  <rect
     x="-382.0397"
     y="188.01268"
     width="6.1993814"
     height="4.1588421"
     transform="matrix(-0.98548714,0.16975012,0.16792143,0.98580038,0,0)"
     fill="#edf4fb"
     id="rect192"
     style="stroke-width:1.23818" />
  <rect
     x="-374.95398"
     y="188.01425"
     width="6.1993814"
     height="4.1588421"
     transform="matrix(-0.98548714,0.16975012,0.16792143,0.98580038,0,0)"
     fill="#edf4fb"
     id="rect194"
     style="stroke-width:1.23818" />
  <path
     d="m 188.09432,103.87193 c 0,0 -19.63235,-10.802284 -23.707,-2.23496 l -1.12361,4.28368 -4.25985,0.37248 c 0,0 -14.63165,-11.361011 -33.33796,-7.636087 l 7.96408,-21.244488 c 0,0 20.50901,0.08691 24.95408,2.135625 l 0.889,-0.434574 c 7.97643,-3.948432 15.8911,-4.96657 23.89221,-1.117487 l 10.28539,4.96657 0.92604,23.665681 z"
     fill="#ff8d2c"
     id="path196"
     style="stroke-width:1.23818" />
  <path
     d="m 188.09432,103.87193 c 0,0 -19.63235,-10.802284 -23.707,-2.23496 l -1.12361,4.28368 -4.25985,0.37248 c 0,0 -14.63165,-11.361011 -33.33796,-7.636087 l 7.96408,-21.244488 c 0,0 20.50901,0.08691 24.95408,2.135625 l 0.889,-0.434574 c 7.97643,-3.948432 15.8911,-4.96657 23.89221,-1.117487 l 10.28539,4.96657 0.92604,23.665681 z"
     fill="url(#linear-gradient-32)"
     id="path198"
     style="fill:url(#linear-gradient-32);stroke-width:1.23818" />
  <path
     d="m 187.7239,98.843293 c 0,0 -19.63235,-10.814712 -23.707,-2.23496 l -1.1236,4.283657 -4.25986,0.37249 c 0,0 -14.63166,-11.373425 -33.33797,-7.636084 l 7.96408,-21.244498 c 0,0 20.50902,0.08691 24.95408,2.135625 l 0.88902,-0.434574 c 7.97642,-3.948419 15.89109,-4.966558 23.89219,-1.117475 l 10.28539,4.96657 0.91371,23.702926 z"
     fill="#ffffff"
     id="path200"
     style="stroke-width:1.23818" />
  <ellipse
     cx="-496.76672"
     cy="166.56242"
     fill="url(#linear-gradient-33)"
     id="circle202"
     style="fill:url(#linear-gradient-33);stroke-width:1.23818"
     rx="0.97544402"
     ry="0.98089683"
     transform="scale(-1,1)" />
  <ellipse
     cx="-492.95139"
     cy="166.56242"
     fill="url(#linear-gradient-34)"
     id="circle204"
     style="fill:url(#linear-gradient-34);stroke-width:1.23818"
     rx="0.97544402"
     ry="0.98089683"
     transform="scale(-1,1)" />
  <path
     d="m 474.09698,149.26634 a 11.865844,11.932175 0 0 0 -9.42107,-0.59599 c 0,0 1.8768,-0.78223 2.85226,-1.1423 a 10.532326,10.591203 0 0 1 5.84031,0.11173 c 2.95103,0.9933 2.86459,1.24163 2.86459,1.24163 z"
     fill="url(#linear-gradient-35)"
     id="path206"
     style="fill:url(#linear-gradient-35);stroke-width:1.23818" />
  <path
     d="m 367.98349,330.59568 h 107.84213 a 3.8276918,3.8490889 0 0 0 3.59309,-5.09072 l -5.30938,-15.75644 -138.2908,-5.31423 c -2.07436,0 -2.69174,9.56065 -0.81493,10.46704 z"
     fill="url(#linear-gradient-36)"
     id="path208"
     style="fill:url(#linear-gradient-36);stroke-width:1.23818" />
  <path
     d="m 367.98349,323.89082 h 113.20089 l -7.03801,-20.872 -138.29081,1.40306 a 1.9632354,1.9742101 0 0 0 -0.81492,3.72492 z"
     fill="#ff8d2c"
     id="path210"
     style="stroke-width:1.23818" />
  <polygon
     points="175.32,314.63 193.77,306.68 168.26,306.08 "
     fill="url(#linear-gradient-37)"
     id="polygon212"
     style="fill:url(#linear-gradient-37)"
     transform="matrix(-1.2347393,0,0,1.2416416,585.75445,-69.001823)" />
  <path
     d="m 375.91051,323.89082 h 101.85364 a 6.6058551,6.6427825 0 0 0 6.53178,-5.61223 l 11.61888,-74.10117 a 6.6182024,6.6551988 0 0 0 -6.54411,-7.68575 H 387.51706 a 6.6182024,6.6551988 0 0 0 -6.53177,5.62463 l -11.60656,74.08876 a 6.6182024,6.6551988 0 0 0 6.53178,7.68576 z"
     fill="#ff8d2c"
     id="path214"
     style="stroke-width:1.23818" />
  <path
     d="m 375.7006,326.39893 h 105.11336 a 4.9389571,4.9665663 0 0 0 4.93896,-4.23399 l 12.12514,-77.36669 a 4.9389571,4.9665663 0 0 0 -4.93896,-5.79847 H 387.80104 a 4.9389571,4.9665663 0 0 0 -4.93894,4.234 l -12.12515,77.35427 a 4.9389571,4.9665663 0 0 0 4.96365,5.81088 z"
     fill="url(#linear-gradient-38)"
     id="path216"
     style="fill:url(#linear-gradient-38);stroke-width:1.23818" />
</svg>
