<?xml version="1.0" encoding="UTF-8" standalone="no"?>
<svg
   xmlns:dc="http://purl.org/dc/elements/1.1/"
   xmlns:cc="http://creativecommons.org/ns#"
   xmlns:rdf="http://www.w3.org/1999/02/22-rdf-syntax-ns#"
   xmlns:svg="http://www.w3.org/2000/svg"
   xmlns="http://www.w3.org/2000/svg"
   xmlns:xlink="http://www.w3.org/1999/xlink"
   xmlns:sodipodi="http://sodipodi.sourceforge.net/DTD/sodipodi-0.dtd"
   xmlns:inkscape="http://www.inkscape.org/namespaces/inkscape"
   id="Layer_1"
   data-name="Layer 1"
   viewBox="0 0 410.73 323.43"
   width="706"
   height="426"
   class="illustration"
   version="1.1"
   sodipodi:docname="service001.svg"
   inkscape:version="1.0.2 (e86c870879, 2021-01-15, custom)">
  <metadata
     id="metadata123">
    <rdf:RDF>
      <cc:Work
         rdf:about="">
        <dc:format>image/svg+xml</dc:format>
        <dc:type
           rdf:resource="http://purl.org/dc/dcmitype/StillImage" />
      </cc:Work>
    </rdf:RDF>
  </metadata>
  <sodipodi:namedview
     pagecolor="#ffffff"
     bordercolor="#666666"
     borderopacity="1"
     objecttolerance="10"
     gridtolerance="10"
     guidetolerance="10"
     inkscape:pageopacity="0"
     inkscape:pageshadow="2"
     inkscape:window-width="1920"
     inkscape:window-height="1002"
     id="namedview121"
     showgrid="false"
     inkscape:zoom="1.0344828"
     inkscape:cx="-69.954406"
     inkscape:cy="240.67475"
     inkscape:window-x="-8"
     inkscape:window-y="-8"
     inkscape:window-maximized="1"
     inkscape:current-layer="Layer_1" />
  <defs
     id="defs24">
    <linearGradient
       id="linear-gradient"
       x1="239.94"
       y1="285.21"
       x2="274.25"
       y2="255.4"
       gradientUnits="userSpaceOnUse">
      <stop
         offset="0.01"
         id="stop2" />
      <stop
         offset="0.83"
         stop-opacity="0.07"
         id="stop4" />
      <stop
         offset="1"
         stop-opacity="0"
         id="stop6" />
    </linearGradient>
    <linearGradient
       id="linear-gradient-2"
       x1="89.34"
       y1="252.41"
       x2="228.24"
       y2="270.4"
       xlink:href="#linear-gradient"
       gradientTransform="matrix(-0.94547801,0,0,0.95390783,416.53126,-9.672792)" />
    <linearGradient
       id="linear-gradient-3"
       x1="187.76"
       y1="161.9"
       x2="206.04"
       y2="200.7"
       xlink:href="#linear-gradient"
       gradientTransform="matrix(-0.94547801,0,0,0.95390783,416.53126,-9.672792)" />
    <linearGradient
       id="linear-gradient-4"
       x1="174.51"
       y1="168.14"
       x2="192.78"
       y2="206.94"
       xlink:href="#linear-gradient"
       gradientTransform="matrix(-0.94547801,0,0,0.95390783,416.53126,-9.672792)" />
    <linearGradient
       id="linear-gradient-5"
       x1="264.91"
       y1="349.06"
       x2="265.62"
       y2="316.79"
       gradientTransform="translate(530.48 668.09) rotate(180)"
       gradientUnits="userSpaceOnUse">
      <stop
         offset="0.01"
         id="stop12" />
      <stop
         offset="0.12"
         stop-opacity="0.75"
         id="stop14" />
      <stop
         offset="1"
         stop-opacity="0"
         id="stop16" />
    </linearGradient>
    <linearGradient
       id="linear-gradient-6"
       x1="302.19"
       y1="236.77"
       x2="337.41"
       y2="355.36"
       xlink:href="#linear-gradient-5"
       gradientTransform="matrix(-0.94547801,0,0,0.95390783,416.53126,-9.672792)" />
    <linearGradient
       id="linear-gradient-7"
       x1="315.63"
       y1="368.99"
       x2="320.42"
       y2="247.7"
       xlink:href="#linear-gradient-5"
       gradientTransform="matrix(-0.94547801,0,0,0.95390783,416.53126,-9.672792)" />
    <linearGradient
       id="linear-gradient-8"
       x1="123.62"
       y1="284.01"
       x2="176.48"
       y2="239.02"
       xlink:href="#linear-gradient"
       gradientTransform="matrix(-0.94547801,0,0,0.95390783,416.53126,-9.672792)" />
    <linearGradient
       id="linear-gradient-9"
       x1="127.74"
       y1="359.53"
       x2="169.35"
       y2="272.93"
       xlink:href="#linear-gradient"
       gradientTransform="matrix(-0.94547801,0,0,0.95390783,416.53126,-9.672792)" />
    <linearGradient
       id="linear-gradient-10"
       x1="170.21"
       y1="278.21"
       x2="164.03"
       y2="381.12"
       xlink:href="#linear-gradient"
       gradientTransform="matrix(-0.94547801,0,0,0.95390783,416.53126,-9.672792)" />
    <linearGradient
       inkscape:collect="always"
       xlink:href="#linear-gradient"
       id="linearGradient125"
       gradientUnits="userSpaceOnUse"
       x1="239.94"
       y1="285.21"
       x2="274.25"
       y2="255.4"
       gradientTransform="matrix(-0.94547801,0,0,0.95390783,416.53126,-9.672792)" />
    <linearGradient
       inkscape:collect="always"
       xlink:href="#linear-gradient-5"
       id="linearGradient127"
       gradientUnits="userSpaceOnUse"
       gradientTransform="matrix(-0.94547801,0,0,-0.95390783,416.53126,9.672792)"
       x1="264.91"
       y1="349.06"
       x2="265.62"
       y2="316.79" />
  </defs>
  <title
     id="title26">Entrepreneur</title>
  <path
     d="m 340.43918,299.62226 c 15.94076,-6.18132 31.98552,-13.30701 44.31456,-25.22132 19.48629,-18.80152 27.1163,-47.94341 23.55185,-74.88176 -3.56445,-26.93836 -17.30224,-51.73042 -35.03942,-72.17267 C 360.79532,113.0379 346.26332,100.42724 335.02159,85.059778 317.05751,60.506207 306.30742,27.825325 279.07766,14.585084 268.6774,9.5293737 256.98184,7.9840417 245.47537,7.9077297 213.66949,7.7741827 182.76182,18.524724 153.9342,32.060676 142.371,37.488411 130.75107,43.583882 122.16613,53.046648 106.90612,70.026203 103.85221,94.303149 96.95968,116.12856 a 166.40413,167.88778 0 0 1 -48.455742,74.51927 c -10.750085,9.53908 -23.476219,18.76337 -26.832666,32.78582 -2.354241,9.86341 0.520013,20.2133 4.216832,29.64746 4.396472,11.18932 10.154433,22.14019 18.956833,30.26749 18.484091,17.04633 45.950233,18.36272 70.977033,18.75382 l 59.04511,0.95391 c 26.62465,0.41972 52.26601,8.80457 78.47467,8.07007 31.62624,-0.95392 56.78541,0.23846 87.09743,-11.50414 z"
     fill="#ff8d2c"
     opacity="0.8"
     style="isolation:isolate;stroke-width:0.949683"
     id="path28" />
  <path
     d="m 128.40629,285.97185 c 0,0 18.16262,-9.53908 28.27925,-12.01925 4.68011,-1.16376 10.84462,-7.67895 16.70658,-15.33883 1.89097,-2.51831 3.78192,-5.17018 5.67288,-7.79343 0,0 31.32369,-51.21531 14.28617,-62.40465 0,0 -7.30855,-0.16216 -11.34574,2.03183 -4.03719,2.19398 -12.90577,20.75703 -14.39017,24.03847 -1.48441,3.28144 -17.63317,33.70156 -18.71102,34.38838 -1.07784,0.68681 -2.8837,3.18605 -9.34131,6.67735 -7.9042,4.29259 -20.32778,16.86509 -20.32778,16.86509 z"
     fill="#ff8d2c"
     id="path30"
     style="stroke-width:0.949683" />
  <path
     d="m 128.40629,285.97185 c 0,0 18.16262,-9.53908 28.27925,-12.01925 4.68011,-1.16376 10.84462,-7.67895 16.70658,-15.33883 1.89097,-2.51831 3.78192,-5.17018 5.67288,-7.79343 0,0 31.32369,-51.21531 14.28617,-62.40465 0,0 -7.30855,-0.16216 -11.34574,2.03183 -4.03719,2.19398 -12.90577,20.75703 -14.39017,24.03847 -1.48441,3.28144 -17.63317,33.70156 -18.71102,34.38838 -1.07784,0.68681 -2.8837,3.18605 -9.34131,6.67735 -7.9042,4.29259 -20.32778,16.86509 -20.32778,16.86509 z"
     fill="url(#linear-gradient)"
     id="path32"
     style="fill:url(#linearGradient125);stroke-width:0.949683" />
  <path
     d="m 184.11385,218.55917 q -1.11566,-14.93819 -1.53167,-27.91134 c 2.3826,-1.26869 5.23794,-2.75679 7.56382,-3.81562 7.08162,-3.40546 16.96188,-7.99375 23.29658,-10.92225 3.70627,-1.71703 7.3369,-2.97619 7.3369,-2.97619 0,0 25.32936,-2.45154 27.41887,-2.318 a 64.557237,65.132825 0 0 1 7.97037,2.74725 c 8.9726,3.44361 26.29375,10.43576 29.04509,12.4008 4.04664,2.91896 18.51246,74.40482 18.90956,79.31744 0.37819,4.71231 -19.6754,11.17027 -38.23512,16.12105 0,7.24969 0.16072,17.40881 0.32145,26.70941 0,1.58349 0.0567,3.13836 0.0851,4.64553 h -81.24492 c 0.11346,-1.59302 0.208,-3.16697 0.28365,-4.64553 v -0.59143 c 0.312,-6.27671 1.52222,-17.53282 1.2102,-28.49322 0,0 0.19856,-11.54229 -0.94548,-16.52168 -0.17018,-22.00665 -1.48439,-43.74622 -1.48439,-43.74622 z m 103.00983,42.0578 c -0.12291,-9.31013 -12.41413,-26.64265 -12.41413,-26.64265 a 6.0226948,6.0763928 0 0 0 -0.57674,-0.21939 c 0,0 -0.63347,-0.0858 -0.63347,-0.0763 0,0.009 -1.89096,-1.82196 -1.89096,-1.82196 -0.44437,1.65026 -4.51938,25.04962 -5.52159,38.67143 11.45919,-2.28938 21.10307,-5.47544 21.03689,-9.91111 z"
     fill="#ffffff"
     id="path34"
     style="stroke-width:0.949683" />
  <path
     d="m 184.11385,218.55917 q -1.11566,-14.93819 -1.53167,-27.91134 c 2.3826,-1.26869 5.23794,-2.75679 7.56382,-3.81562 7.08162,-3.40546 16.96188,-7.99375 23.29658,-10.92225 3.70627,-1.71703 7.3369,-2.97619 7.3369,-2.97619 0,0 25.32936,-2.45154 27.41887,-2.318 a 64.557237,65.132825 0 0 1 7.97037,2.74725 c 8.9726,3.44361 26.29375,10.43576 29.04509,12.4008 4.04664,2.91896 18.51246,74.40482 18.90956,79.31744 0.37819,4.71231 -19.6754,11.17027 -38.23512,16.12105 0,7.24969 0.16072,17.40881 0.32145,26.70941 0,1.58349 0.0567,3.13836 0.0851,4.64553 h -81.24492 c 0.11346,-1.59302 0.208,-3.16697 0.28365,-4.64553 v -0.59143 c 0.312,-6.27671 1.52222,-17.53282 1.2102,-28.49322 0,0 0.19856,-11.54229 -0.94548,-16.52168 -0.17018,-22.00665 -1.48439,-43.74622 -1.48439,-43.74622 z m 103.00983,42.0578 c -0.12291,-9.31013 -12.41413,-26.64265 -12.41413,-26.64265 a 6.0226948,6.0763928 0 0 0 -0.57674,-0.21939 c 0,0 -0.63347,-0.0858 -0.63347,-0.0763 0,0.009 -1.89096,-1.82196 -1.89096,-1.82196 -0.44437,1.65026 -4.51938,25.04962 -5.52159,38.67143 11.45919,-2.28938 21.10307,-5.47544 21.03689,-9.91111 z"
     fill="url(#linear-gradient-2)"
     id="path36"
     style="fill:url(#linear-gradient-2);stroke-width:0.949683" />
  <path
     d="m 182.61054,307.85449 c 0.52946,-3.88241 1.04002,-7.76481 1.49386,-11.56136 0,0 0,0 0,-0.0477 0.14181,-1.2687 0.29309,-2.51831 0.43491,-3.75839 0,-0.0572 0,-0.12401 0,-0.20033 0.59565,-5.22741 1.0873,-10.24496 1.44658,-14.83327 a 47.122624,47.542766 0 0 0 -0.45383,-10.32128 c -1.41821,-23.4852 -2.11787,-48.24865 -2.11787,-48.24865 -0.74693,-10.13051 -1.17239,-19.61235 -1.45603,-28.43599 0,0 31.79642,-15.16713 34.68014,-16.03519 0,0 -6.03216,14.30861 -10.55154,46.23591 -1.73969,12.26725 -4.95431,32.90981 -7.29909,53.99118 v 0 c -1.26695,11.37058 -3.64009,22.96056 -5.4365,33.21507 -0.28365,1.58349 -0.53892,3.12882 -0.78474,4.64553 h -10.6461 c 0.25529,-1.54533 0.47274,-3.1002 0.69021,-4.64553 z"
     fill="#ff8d2c"
     id="path38"
     style="stroke-width:0.949683" />
  <path
     d="m 235.54785,270.12744 c -1.24803,-11.87616 -2.38261,-23.7237 -1.83422,-30.2198 4.38701,-52.20739 16.79168,-66.01996 18.58809,-68.04225 1.39931,0.53419 6.69398,2.5374 8.24457,3.15743 8.5093,3.37684 25.78318,9.53908 28.11851,11.25611 4.03719,2.91896 19.97795,77.9152 20.46014,82.76105 0.32147,3.28144 -20.47904,10.1305 -41.70502,16.21643 0.19854,5.87608 -0.34983,14.15599 1.57895,22.7984 a 19.656487,19.831743 0 0 1 0.94547,4.53106 l -29.584,-0.11447 c -0.17964,-1.54533 -0.36875,-3.09066 -0.54839,-4.64553 -0.56727,-4.6646 -1.15348,-9.44369 -1.73968,-14.52801 -8.86857,2.31799 -14.90073,3.81562 -14.90073,3.81562 0,0 -8.33911,-14.21322 -10.75954,-19.97482 -0.43491,-0.95392 10.29627,-3.50084 23.13585,-7.01122 z m 41.65776,-17.36113 a 48.493566,48.925932 0 0 0 -3.16735,-18.75382 c -1.04948,3.663 -2.50552,14.12737 -3.78191,24.52496 4.30192,-2.18445 6.89253,-3.6153 6.94926,-5.77114 z"
     fill="#ff8d2c"
     id="path40"
     style="stroke-width:0.949683" />
  <path
     d="m 249.46528,171.35982 c 0,0 -3.22408,-6.14317 -2.33533,-23.5806 0.24583,-4.82678 -25.14026,11.4469 -25.14026,11.4469 0,0 0.0851,1.66933 0.14183,3.91101 0,0.95391 0.0472,1.96505 0.0472,3.01435 0,0.29571 0,0.58188 0,0.86806 0,0.47695 0,0.95391 0,1.42132 0,0.46742 0,1.16377 -0.0567,1.71704 -0.0567,0.55326 -0.0757,1.22099 -0.13238,1.76472 a 16.394589,16.540762 0 0 1 -0.94547,3.42453 c -1.17239,2.71864 18.90956,2.89988 28.42107,-3.98733 z"
     fill="#e4aa8b"
     id="path42"
     style="stroke-width:0.949683" />
  <path
     d="m 228.17312,182.44422 -3.50772,4.76954 c -0.83202,1.12562 -1.40876,1.83151 -1.32367,3.33868 a 6.618346,6.6773547 0 0 0 2.0706,4.44521 1.4371265,1.4499399 0 0 0 1.21967,0.49604 1.5789482,1.593026 0 0 0 0.69965,-0.49604 16.167674,16.311824 0 0 0 3.451,-4.34982 c 0.50109,-1.10653 -0.12292,-2.0032 -0.55784,-3.09065 z"
     fill="#18202d"
     id="path44"
     style="stroke-width:0.949683" />
  <path
     d="m 225.14759,189.59853 c -1.53167,1.02069 -2.22187,5.2465 -3.03498,6.96353 -1.89096,4.0255 -4.23574,7.83159 -5.85251,12.00016 -2.05169,5.29419 -2.83643,10.97948 -3.53608,16.61708 q -1.64513,13.92705 -2.13679,27.94949 c -0.24582,6.93492 -0.27419,13.89845 -1.31421,20.75704 -0.65239,4.31166 -1.68295,8.83319 -0.13237,12.89684 1.18184,3.10019 3.70628,5.44681 6.2118,7.63126 1.96658,-1.74565 3.99936,-3.59624 4.97321,-6.04778 a 16.526955,16.674309 0 0 0 0.94547,-4.43567 l 2.04224,-18.21009 c 0.74693,-6.7346 1.50331,-13.45965 2.08004,-20.21331 0.41602,-4.76955 0.73748,-9.53909 0.72803,-14.30863 0,-4.15904 -0.2742,-8.31806 0.12291,-12.45803 0.41601,-4.37844 1.57895,-8.66149 2.12732,-13.03039 0.50111,-3.96825 2.23134,-12.3531 -0.99275,-15.56777 -0.93603,-0.85851 -1.64513,-0.94437 -2.23133,-0.54373 z"
     fill="#18202d"
     id="path46"
     style="stroke-width:0.949683" />
  <path
     d="m 223.16209,176.53 5.01103,5.91422 c 0,0 8.04602,-1.57394 10.40026,-5.80929 2.35424,-4.23535 -15.41129,-0.10498 -15.41129,-0.10498 z"
     fill="#e4aa8b"
     id="path48"
     style="stroke-width:0.949683" />
  <path
     d="m 222.01806,171.35982 c 0,0 0.57675,4.50244 6.15506,11.0844 l -9.98425,11.44691 0.60512,-20.27055 z"
     fill="#ffffff"
     id="path50"
     style="stroke-width:0.949683" />
  <path
     d="m 247.93361,165.93208 c 0,0 -11.62938,13.26886 -19.76049,16.51214 l 5.78633,13.55504 16.55531,-24.80161 z"
     fill="#ffffff"
     id="path52"
     style="stroke-width:0.949683" />
  <path
     d="m 222.01806,171.35982 c 0,0 0.57675,4.50244 6.15506,11.0844 l -9.98425,11.44691 0.60512,-20.27055 z"
     fill="url(#linear-gradient-3)"
     id="path54"
     style="fill:url(#linear-gradient-3);stroke-width:0.949683" />
  <path
     d="m 247.93361,165.93208 c 0,0 -11.62938,13.26886 -19.76049,16.51214 l 5.78633,13.55504 16.55531,-24.80161 z"
     fill="url(#linear-gradient-4)"
     id="path56"
     style="fill:url(#linear-gradient-4);stroke-width:0.949683" />
  <path
     d="m 202.48448,303.44743 a 9.9464285,10.03511 0 0 0 3.08226,-0.58188 c 0,0 1.60732,-1.0493 2.83644,-1.71703 a 9.0482244,9.1288978 0 0 1 0.94548,-0.48649 17.633165,17.790381 0 0 0 5.18122,-2.48971 c 2.03277,-1.55486 8.65112,-7.80296 8.65112,-7.80296 l -4.28302,-6.67736 -1.96659,-6.57243 c 0,0 -15.4302,1.55488 -17.49135,2.78542 a 6.3819764,6.4388777 0 0 0 -0.55782,0.38156 c -1.64513,1.21146 -2.3637,2.86172 -3.14845,3.54854 -0.29309,0.27663 -2.97825,3.17651 -2.83643,4.34982 a 3.8386406,3.8728657 0 0 0 2.01387,3.18605 c 0,0 0.53892,3.17651 2.1746,4.59783 a 5.6728679,5.7234469 0 0 0 2.93098,4.13996 c 0,0 0.71856,2.98573 2.46769,3.33868 z"
     fill="#e5ab8c"
     id="path58"
     style="stroke-width:0.949683" />
  <path
     d="m 227.04801,102.80246 c 0,0 -27.88215,-6.77274 -22.01073,28.83663 5.87142,35.60939 12.5654,38.49972 29.54619,31.40265 16.98078,-7.09707 15.79893,-29.87639 16.81059,-41.01803 1.01167,-11.14165 -15.44911,-18.69659 -24.34605,-19.22125 z"
     fill="#e4a98a"
     id="path60"
     style="stroke-width:0.949683" />
  <path
     d="m 241.69345,127.47052 c 0.41601,-3.12882 6.57108,-4.18766 6.99654,0.51511 0.42547,4.70277 -2.97825,12.90637 -5.29468,12.0574 -2.31641,-0.84898 -2.26914,-8.26085 -1.70186,-12.57251 z"
     fill="#e4a98a"
     id="path62"
     style="stroke-width:0.949683" />
  <path
     d="m 211.62726,277.16727 11.51592,19.97483 c 0,0 30.49167,-7.93651 37.61112,-9.95879 l -16.30004,-19.52649 c 0,0 -23.94896,5.52312 -32.827,9.51045 z"
     fill="#ff8d2c"
     id="path64"
     style="stroke-width:0.949683" />
  <path
     d="m 222.0937,170.16743 v 0 a 26.681389,26.919279 0 0 0 20.80052,-13.15439 30.907675,31.183246 0 0 1 -20.66816,9.14799 c 0,0.2957 0,0.58188 0,0.86804 0,0.47696 0,0.95392 0,1.42133 0,0.46742 -0.10394,1.21147 -0.13236,1.71703 z"
     fill="#a07a64"
     id="path66"
     style="stroke-width:0.949683" />
  <rect
     x="86.445953"
     y="-316.35379"
     width="158.61339"
     height="14.756954"
     rx="7.3085451"
     transform="scale(1,-1)"
     fill="#ff8d2c"
     id="rect68"
     style="stroke-width:0.949683" />
  <rect
     x="86.445953"
     y="-316.35379"
     width="158.61339"
     height="14.756954"
     rx="7.3085451"
     transform="scale(1,-1)"
     fill="url(#linear-gradient-5)"
     id="rect70"
     style="fill:url(#linearGradient127);stroke-width:0.949683" />
  <path
     d="m 182.05271,302.25505 -2.41098,7.83158 -102.31963,6.27671 -29.14908,-74.57651 a 6.4954338,6.5533467 0 0 1 6.041604,-8.9572 h 86.719246 a 20.942337,21.129058 0 0 1 19.46739,13.35472 z"
     fill="#ff8d2c"
     id="path72"
     style="stroke-width:0.949683" />
  <path
     d="m 182.05271,302.25505 -2.41098,7.83158 -102.31963,6.27671 -29.14908,-74.57651 a 6.4954338,6.5533467 0 0 1 6.041604,-8.9572 h 86.719246 a 20.942337,21.129058 0 0 1 19.46739,13.35472 z"
     fill="url(#linear-gradient-6)"
     id="path74"
     style="fill:url(#linear-gradient-6);stroke-width:0.949683" />
  <path
     d="M 182.20398,316.4492 H 77.25592 L 49.572327,245.612 a 6.1739713,6.229018 0 0 1 5.739051,-8.50885 h 82.360592 a 19.855038,20.032064 0 0 1 18.4841,12.68697 z"
     fill="#ff8d2c"
     id="path76"
     style="stroke-width:0.949683" />
  <path
     d="M 182.20398,316.4492 H 77.25592 L 49.572327,245.612 a 6.1739713,6.229018 0 0 1 5.739051,-8.50885 h 82.360592 a 19.855038,20.032064 0 0 1 18.4841,12.68697 z"
     fill="url(#linear-gradient-7)"
     id="path78"
     style="fill:url(#linear-gradient-7);stroke-width:0.949683" />
  <path
     d="m 321.16088,180.91798 v 32.30886 a 6.183426,6.238557 0 0 0 6.18343,6.23855 h 52.00129 a 6.1928808,6.2480962 0 0 0 6.18343,-6.23855 v -32.30886 a 7.3274544,7.3927855 0 0 0 -0.0851,-1.03977 l -36.79801,24.97331 -27.3054,-25.27856 a 6.1928808,6.2480962 0 0 0 -0.17964,1.34502 z"
     fill="#ffffff"
     id="path80"
     style="stroke-width:0.949683" />
  <path
     d="m 238.78139,131.61048 c 0.73747,-1.90782 1.68294,-3.96825 3.58336,-4.61692 2.4866,-0.83944 5.18122,1.6598 5.30413,4.31167 0.12291,2.65186 -1.62622,5.06525 -3.72518,6.67736 a 79.722705,80.433507 0 0 0 4.72739,12.4008 76.073159,76.751422 0 0 0 3.62118,-22.89379 c 0.94547,-0.27663 1.44658,-1.40225 1.65458,-2.40385 1.32367,-6.34348 -1.94768,-12.68698 -5.51213,-18.12425 a 23.041298,23.246733 0 0 0 -5.50268,-6.3244 c -4.92595,-3.52946 -11.47811,-3.09067 -17.49135,-3.6344 -4.95431,-0.44834 -10.12607,-1.631179 -14.74,0.22895 a 15.534204,15.672705 0 0 0 -7.56382,7.34508 35.64452,35.962324 0 0 0 -3.24299,10.28313 38.367497,38.709579 0 0 0 -0.8793,10.93178 17.160426,17.313427 0 0 0 4.01829,10.03511 c 0.66183,0.73451 2.3826,1.60257 3.1768,1.02069 a 36.173988,36.496513 0 0 1 -1.06839,-9.48184 c 0.0945,-2.74726 0.11346,-4.39752 1.89095,-6.46751 a 4.2641058,4.3021242 0 0 1 2.89317,-1.6598 c 1.08729,0 2.10842,0.60097 3.18626,0.63912 1.95714,0.0858 3.45099,-1.64072 5.16231,-2.60416 a 7.7623743,7.8315832 0 0 1 6.9398,-0.17171 9.1900461,9.2719839 0 0 1 4.72739,5.28466 c 0.49166,1.38315 0.94548,3.14789 2.38261,3.46267 1.89095,0.40065 3.29026,-2.36568 4.92594,-1.26869 1.45603,1.02068 1.3804,5.48497 1.53168,7.0303 z"
     fill="#18202d"
     id="path82"
     style="stroke-width:0.949683" />
  <path
     d="m 270.25635,258.53745 -21.746,7.19247 c 0,0 7.09109,-43.26926 8.85914,-45.06261 1.76804,-1.79334 22.69146,-24.66805 22.69146,-24.66805 0,0 -10.94863,22.38822 -6.00378,38.01323"
     fill="url(#linear-gradient-8)"
     id="path84"
     style="fill:url(#linear-gradient-8);stroke-width:0.949683" />
  <path
     d="m 223.14318,297.1421 -5.16231,-9.59631 c 0,0 79.5147,-24.40096 80.57364,-26.01306 1.05893,-1.61211 -1.32367,-42.64922 -1.32367,-42.64922 l 11.8941,50.15647 c 0,0 -25.0268,14.6234 -85.98176,28.10212 z"
     fill="url(#linear-gradient-9)"
     id="path86"
     style="fill:url(#linear-gradient-9);stroke-width:0.949683" />
  <path
     d="m 248.04707,291.29465 v 21.19583 l 21.8689,0.12401 c 0,0 -3.06334,-15.10037 -2.49605,-27.32946 z"
     fill="url(#linear-gradient-10)"
     id="path88"
     style="fill:url(#linear-gradient-10);stroke-width:0.949683" />
  <path
     d="m 321.98344,175.99581 27.30542,25.27855 36.82636,-24.93514 a 6.1928808,6.2480962 0 0 0 -6.09833,-5.18926 H 328.0156 a 6.1739713,6.229018 0 0 0 -6.03216,4.84585 z"
     fill="#ffffff"
     id="path90"
     style="stroke-width:0.949683" />
  <ellipse
     cx="-274.01938"
     cy="75.37767"
     fill="#ffffff"
     id="circle92"
     transform="scale(-1,1)"
     style="stroke-width:0.949683"
     rx="20.724878"
     ry="20.90966" />
  <polygon
     points="128.15,86.65 157.97,86.65 153.24,102.78 134.12,103.21 "
     fill="#ffffff"
     id="polygon94"
     transform="matrix(-0.94547799,0,0,0.95390781,409.14706,7.9268077)" />
  <path
     d="M 281.45081,109.36535 H 265.5006 v 1.3164 a 4.3681084,4.4070541 0 0 0 4.36811,4.40705 h 7.21399 a 4.3681084,4.4070541 0 0 0 4.36811,-4.40705 z"
     fill="#ffffff"
     id="path96"
     style="stroke-width:0.949683" />
  <g
     opacity="0.8"
     style="isolation:isolate"
     id="g100"
     transform="matrix(-0.94547799,0,0,0.95390781,409.14706,7.9268077)">
    <path
       d="m 146.45,122 a 29.55,29.55 0 0 1 -2.6,-11.09 15.39,15.39 0 0 1 3.78,-10.73 4.1,4.1 0 0 1 2.77,-1.56 3.6,3.6 0 0 1 3.15,2.09 3.58,3.58 0 0 1 2.09,-0.54 c 1.91,0.14 3.2,1.95 3.64,3.69 a 14.41,14.41 0 0 1 0.14,5 58.81,58.81 0 0 1 -2.95,13 l -0.94,-0.33 a 57.42,57.42 0 0 0 2.89,-12.81 13.07,13.07 0 0 0 -0.11,-4.71 c -0.35,-1.39 -1.33,-2.83 -2.74,-2.93 a 2.52,2.52 0 0 0 -1.58,0.45 c 0.06,0.15 0.11,0.29 0.16,0.44 a 12.5,12.5 0 0 1 0.44,5.73 4.18,4.18 0 0 1 -1.16,2.51 2.22,2.22 0 0 1 -1.7,0.55 1.74,1.74 0 0 1 -1.23,-0.65 2.51,2.51 0 0 1 -0.43,-1.36 9.7,9.7 0 0 1 1.66,-6.34 6.67,6.67 0 0 1 1,-1.18 2.75,2.75 0 0 0 -2.3,-1.71 3.23,3.23 0 0 0 -2.09,1.25 14.6,14.6 0 0 0 -3.51,10 28.66,28.66 0 0 0 2.52,10.72 z m 6.73,-19.7 a 5.25,5.25 0 0 0 -0.62,0.76 8.84,8.84 0 0 0 -1.5,5.69 1.69,1.69 0 0 0 0.24,0.84 0.7,0.7 0 0 0 0.52,0.27 1.25,1.25 0 0 0 1,-0.31 3.19,3.19 0 0 0 0.83,-1.92 11.49,11.49 0 0 0 -0.4,-5.27 c 0,0 -0.06,-0.03 -0.07,-0.05 z"
       transform="translate(-7.81,-18.45)"
       fill="#ff8d2c"
       id="path98" />
  </g>
  <rect
     x="-181.31523"
     y="117.50215"
     width="78.153221"
     height="55.25034"
     rx="5.2852221"
     fill="#ffffff"
     id="rect102"
     transform="scale(-1,1)"
     style="stroke-width:0.949683" />
  <rect
     x="-177.94931"
     y="132.1637"
     width="15.600387"
     height="14.480321"
     fill="#ff8d2c"
     opacity="0.8"
     style="isolation:isolate;stroke-width:0.949683"
     id="rect104"
     transform="scale(-1,1)" />
  <rect
     x="-159.16267"
     y="132.1637"
     width="15.600387"
     height="14.480321"
     fill="#ff8d2c"
     opacity="0.8"
     style="isolation:isolate;stroke-width:0.949683"
     id="rect106"
     transform="scale(-1,1)" />
  <rect
     x="-177.94931"
     y="149.68698"
     width="15.600387"
     height="14.480321"
     fill="#ff8d2c"
     opacity="0.8"
     style="isolation:isolate;stroke-width:0.949683"
     id="rect108"
     transform="scale(-1,1)" />
  <rect
     x="-159.16267"
     y="149.68698"
     width="15.600387"
     height="14.480321"
     fill="#ff8d2c"
     opacity="0.8"
     style="isolation:isolate;stroke-width:0.949683"
     id="rect110"
     transform="scale(-1,1)" />
  <rect
     x="-141.08514"
     y="132.1637"
     width="15.600387"
     height="14.480321"
     fill="#ff8d2c"
     opacity="0.8"
     style="isolation:isolate;stroke-width:0.949683"
     id="rect112"
     transform="scale(-1,1)" />
  <rect
     x="-122.30795"
     y="132.1637"
     width="15.600387"
     height="14.480321"
     fill="#ff8d2c"
     opacity="0.8"
     style="isolation:isolate;stroke-width:0.949683"
     id="rect114"
     transform="scale(-1,1)" />
  <rect
     x="-141.08514"
     y="149.68698"
     width="15.600387"
     height="14.480321"
     fill="#ff8d2c"
     opacity="0.8"
     style="isolation:isolate;stroke-width:0.949683"
     id="rect116"
     transform="scale(-1,1)" />
  <rect
     x="-122.30795"
     y="149.68698"
     width="15.600387"
     height="14.480321"
     fill="#ff8d2c"
     opacity="0.8"
     style="isolation:isolate;stroke-width:0.949683"
     id="rect118"
     transform="scale(-1,1)" />
</svg>
